<svg width="145" height="144" viewBox="0 0 145 144" fill="none" xmlns="http://www.w3.org/2000/svg">
<path d="M144.361 72C144.361 94.8158 133.723 115.153 117.123 128.343C104.794 138.145 89.1718 144 72.1805 144C55.1892 144 39.5694 138.145 27.2382 128.343C10.6377 115.153 0 94.8158 0 72C0 32.2354 32.3162 0 72.1805 0C112.045 0 144.361 32.2354 144.361 72Z" fill="#757779"/>
<path d="M72.1804 86.1758C88.9367 86.1758 102.52 72.6261 102.52 55.9116C102.52 39.1972 88.9367 25.6475 72.1804 25.6475C55.424 25.6475 41.8403 39.1972 41.8403 55.9116C41.8403 72.6261 55.424 86.1758 72.1804 86.1758Z" fill="#5A5D5F"/>
<path d="M117.123 128.34C104.795 138.142 89.1723 143.997 72.181 143.997C55.1897 143.997 39.5699 138.142 27.2388 128.34C33.0762 109.101 50.9868 95.0947 72.181 95.0947C93.3753 95.0947 111.286 109.101 117.123 128.34Z" fill="#5A5D5F"/>
</svg>
