<svg width="42" height="46" viewBox="0 0 42 46" fill="none" xmlns="http://www.w3.org/2000/svg">
<g clip-path="url(#clip0_4551_2586)">
<path d="M32.655 41.4186C28.627 44.4001 23.7254 46.0082 18.69 46.0001H-1.52588e-05V25.3677H3.26277C9.13836 25.3696 14.9173 26.8433 20.0581 29.6507C25.1989 32.458 29.5332 36.5071 32.655 41.4186Z" fill="#EAFF44"/>
<path d="M42 23C42.0057 26.5135 41.1913 29.9811 39.62 33.134C35.423 27.5131 29.946 22.944 23.6307 19.7954C17.3154 16.6467 10.3385 15.0066 3.26275 15.0072H-3.05176e-05V0H18.69C24.8722 0 30.8012 2.42321 35.1726 6.73655C39.5441 11.0499 42 16.9 42 23Z" fill="#FDFFEC"/>
</g>
<defs>
<clipPath id="clip0_4551_2586">
<rect width="42" height="46" fill="white"/>
</clipPath>
</defs>
</svg>
