<svg width="430" height="138" viewBox="0 0 430 138" fill="none" xmlns="http://www.w3.org/2000/svg">
<g clip-path="url(#clip0_127_3153)">
<path d="M226.655 65.4186C222.627 68.4001 217.725 70.0082 212.69 70.0001H194V49.3677H197.263C203.138 49.3696 208.917 50.8433 214.058 53.6507C219.199 56.458 223.533 60.5071 226.655 65.4186Z" fill="#EAFF44"/>
<path d="M236 47C236.006 50.5135 235.191 53.9811 233.62 57.134C229.423 51.5131 223.946 46.944 217.631 43.7954C211.315 40.6467 204.339 39.0066 197.263 39.0072H194V24H212.69C218.872 24 224.801 26.4232 229.173 30.7365C233.544 35.0499 236 40.9 236 47Z" fill="#FDFFEC"/>
</g>
<path d="M166.373 107.284C165.047 107.284 163.846 106.943 162.771 106.261C161.703 105.572 160.854 104.561 160.225 103.227C159.604 101.886 159.293 100.242 159.293 98.2955C159.293 96.2955 159.615 94.6326 160.259 93.3068C160.903 91.9735 161.759 90.9773 162.828 90.3182C163.903 89.6515 165.081 89.3182 166.362 89.3182C167.339 89.3182 168.153 89.4848 168.805 89.8182C169.464 90.1439 169.994 90.553 170.396 91.0455C170.805 91.5303 171.115 92.0076 171.328 92.4773H171.475V83.7273H176.305V107H171.532V104.205H171.328C171.1 104.689 170.778 105.17 170.362 105.648C169.953 106.117 169.418 106.508 168.759 106.818C168.108 107.129 167.312 107.284 166.373 107.284ZM167.907 103.432C168.687 103.432 169.346 103.22 169.884 102.795C170.43 102.364 170.846 101.761 171.134 100.989C171.43 100.216 171.578 99.3106 171.578 98.2727C171.578 97.2348 171.434 96.3333 171.146 95.5682C170.858 94.803 170.441 94.2121 169.896 93.7955C169.35 93.3788 168.687 93.1705 167.907 93.1705C167.112 93.1705 166.441 93.3864 165.896 93.8182C165.35 94.25 164.937 94.8485 164.657 95.6136C164.377 96.3788 164.237 97.2652 164.237 98.2727C164.237 99.2879 164.377 100.186 164.657 100.966C164.945 101.739 165.358 102.345 165.896 102.784C166.441 103.216 167.112 103.432 167.907 103.432ZM188.079 107.341C186.284 107.341 184.739 106.977 183.443 106.25C182.155 105.515 181.163 104.477 180.466 103.136C179.769 101.788 179.42 100.193 179.42 98.3523C179.42 96.5568 179.769 94.9811 180.466 93.625C181.163 92.2689 182.144 91.2121 183.409 90.4545C184.682 89.697 186.174 89.3182 187.886 89.3182C189.038 89.3182 190.11 89.5038 191.102 89.875C192.102 90.2386 192.973 90.7879 193.716 91.5227C194.466 92.2576 195.049 93.1818 195.466 94.2955C195.883 95.4015 196.091 96.697 196.091 98.1818V99.5114H181.352V96.5114H191.534C191.534 95.8144 191.383 95.197 191.079 94.6591C190.776 94.1212 190.356 93.7008 189.818 93.3977C189.288 93.0871 188.67 92.9318 187.966 92.9318C187.231 92.9318 186.579 93.1023 186.011 93.4432C185.451 93.7765 185.011 94.2273 184.693 94.7955C184.375 95.3561 184.212 95.9811 184.204 96.6705V99.5227C184.204 100.386 184.364 101.133 184.682 101.761C185.008 102.39 185.466 102.875 186.057 103.216C186.648 103.557 187.348 103.727 188.159 103.727C188.697 103.727 189.189 103.652 189.636 103.5C190.083 103.348 190.466 103.121 190.784 102.818C191.102 102.515 191.345 102.144 191.511 101.705L195.989 102C195.761 103.076 195.295 104.015 194.591 104.818C193.894 105.614 192.992 106.235 191.886 106.682C190.788 107.121 189.519 107.341 188.079 107.341ZM206.976 107.341C205.188 107.341 203.651 106.962 202.363 106.205C201.082 105.439 200.098 104.379 199.408 103.023C198.726 101.667 198.385 100.106 198.385 98.3409C198.385 96.553 198.73 94.9848 199.419 93.6364C200.116 92.2803 201.105 91.2235 202.385 90.4659C203.666 89.7008 205.188 89.3182 206.954 89.3182C208.476 89.3182 209.81 89.5947 210.954 90.1477C212.098 90.7008 213.003 91.4773 213.669 92.4773C214.336 93.4773 214.704 94.6515 214.772 96H210.204C210.075 95.1288 209.734 94.428 209.181 93.8977C208.635 93.3598 207.919 93.0909 207.033 93.0909C206.283 93.0909 205.628 93.2955 205.067 93.7045C204.514 94.1061 204.082 94.6932 203.772 95.4659C203.461 96.2386 203.306 97.1742 203.306 98.2727C203.306 99.3864 203.457 100.333 203.76 101.114C204.071 101.894 204.507 102.489 205.067 102.898C205.628 103.307 206.283 103.511 207.033 103.511C207.586 103.511 208.082 103.398 208.522 103.17C208.969 102.943 209.336 102.614 209.624 102.182C209.919 101.742 210.113 101.216 210.204 100.602H214.772C214.696 101.936 214.332 103.11 213.681 104.125C213.037 105.133 212.147 105.92 211.01 106.489C209.874 107.057 208.529 107.341 206.976 107.341ZM225.598 107.341C223.832 107.341 222.306 106.966 221.018 106.216C219.738 105.458 218.749 104.405 218.052 103.057C217.355 101.701 217.007 100.129 217.007 98.3409C217.007 96.5379 217.355 94.9621 218.052 93.6136C218.749 92.2576 219.738 91.2045 221.018 90.4545C222.306 89.697 223.832 89.3182 225.598 89.3182C227.363 89.3182 228.885 89.697 230.166 90.4545C231.454 91.2045 232.446 92.2576 233.143 93.6136C233.84 94.9621 234.188 96.5379 234.188 98.3409C234.188 100.129 233.84 101.701 233.143 103.057C232.446 104.405 231.454 105.458 230.166 106.216C228.885 106.966 227.363 107.341 225.598 107.341ZM225.62 103.591C226.423 103.591 227.094 103.364 227.632 102.909C228.17 102.447 228.575 101.818 228.848 101.023C229.128 100.227 229.268 99.322 229.268 98.3068C229.268 97.2917 229.128 96.3864 228.848 95.5909C228.575 94.7955 228.17 94.1667 227.632 93.7045C227.094 93.2424 226.423 93.0114 225.62 93.0114C224.81 93.0114 224.128 93.2424 223.575 93.7045C223.029 94.1667 222.616 94.7955 222.336 95.5909C222.063 96.3864 221.927 97.2917 221.927 98.3068C221.927 99.322 222.063 100.227 222.336 101.023C222.616 101.818 223.029 102.447 223.575 102.909C224.128 103.364 224.81 103.591 225.62 103.591ZM237.085 107V104.114L245.631 93.5341V93.4091H237.381V89.5455H251.46V92.6932L243.438 103.011V103.136H251.756V107H237.085ZM262.752 107.341C260.957 107.341 259.411 106.977 258.116 106.25C256.828 105.515 255.835 104.477 255.138 103.136C254.441 101.788 254.093 100.193 254.093 98.3523C254.093 96.5568 254.441 94.9811 255.138 93.625C255.835 92.2689 256.816 91.2121 258.082 90.4545C259.354 89.697 260.847 89.3182 262.559 89.3182C263.71 89.3182 264.782 89.5038 265.775 89.875C266.775 90.2386 267.646 90.7879 268.388 91.5227C269.138 92.2576 269.722 93.1818 270.138 94.2955C270.555 95.4015 270.763 96.697 270.763 98.1818V99.5114H256.025V96.5114H266.207C266.207 95.8144 266.055 95.197 265.752 94.6591C265.449 94.1212 265.029 93.7008 264.491 93.3977C263.96 93.0871 263.343 92.9318 262.638 92.9318C261.904 92.9318 261.252 93.1023 260.684 93.4432C260.123 93.7765 259.684 94.2273 259.366 94.7955C259.047 95.3561 258.885 95.9811 258.877 96.6705V99.5227C258.877 100.386 259.036 101.133 259.354 101.761C259.68 102.39 260.138 102.875 260.729 103.216C261.32 103.557 262.021 103.727 262.832 103.727C263.369 103.727 263.862 103.652 264.309 103.5C264.756 103.348 265.138 103.121 265.457 102.818C265.775 102.515 266.017 102.144 266.184 101.705L270.661 102C270.434 103.076 269.968 104.015 269.263 104.818C268.566 105.614 267.665 106.235 266.559 106.682C265.46 107.121 264.191 107.341 262.752 107.341Z" fill="#EAFF44"/>
<defs>
<clipPath id="clip0_127_3153">
<rect width="42" height="46" fill="white" transform="translate(194 24)"/>
</clipPath>
</defs>
</svg>
