<svg width="44" height="44" viewBox="0 0 44 44" fill="none" xmlns="http://www.w3.org/2000/svg">
<rect x="1.5" y="1.5" width="41" height="41" rx="20.5" fill="#EAFF44"/>
<rect x="1.5" y="1.5" width="41" height="41" rx="20.5" stroke="#313437" stroke-width="3"/>
<path fill-rule="evenodd" clip-rule="evenodd" d="M13.25 32C13.25 31.5858 13.5858 31.25 14 31.25H30C30.4142 31.25 30.75 31.5858 30.75 32C30.75 32.4142 30.4142 32.75 30 32.75H14C13.5858 32.75 13.25 32.4142 13.25 32Z" fill="#313437"/>
<path d="M21.5201 24.929L21.5201 24.9289L27.4368 19.0123C26.6315 18.6771 25.6777 18.1266 24.7757 17.2245C23.8736 16.3224 23.323 15.3685 22.9879 14.5631L17.0711 20.4799L17.071 20.48C16.6093 20.9417 16.3785 21.1725 16.1799 21.4271C15.9457 21.7273 15.7449 22.0522 15.5811 22.396C15.4422 22.6874 15.3389 22.9972 15.1324 23.6167L14.0436 26.8833C13.9419 27.1882 14.0213 27.5243 14.2485 27.7515C14.4757 27.9787 14.8118 28.0581 15.1167 27.9564L18.3833 26.8676C19.0028 26.6611 19.3126 26.5578 19.604 26.4189C19.9478 26.2551 20.2727 26.0543 20.5729 25.8201C20.8275 25.6215 21.0584 25.3907 21.5201 24.929Z" fill="#313437"/>
<path d="M29.0786 17.3704C30.3071 16.1419 30.3071 14.15 29.0786 12.9214C27.85 11.6929 25.8581 11.6929 24.6296 12.9214L23.9199 13.6311C23.9296 13.6604 23.9397 13.6901 23.9502 13.7203C24.2103 14.47 24.701 15.4528 25.6243 16.376C26.5475 17.2992 27.5303 17.79 28.28 18.0501C28.31 18.0605 28.3396 18.0705 28.3688 18.0802L29.0786 17.3704Z" fill="#313437"/>
</svg>
