<svg width="16" height="17" viewBox="0 0 16 17" fill="none" xmlns="http://www.w3.org/2000/svg">
<path d="M5.9745 12.9679L6.28941 12.5795L5.9745 12.9679ZM8.00001 3.77228L7.63493 4.11391C7.72947 4.21494 7.86164 4.27228 8.00001 4.27228C8.13838 4.27228 8.27056 4.21494 8.3651 4.11391L8.00001 3.77228ZM10.0255 12.9679L10.3404 13.3562L10.0255 12.9679ZM6.28941 12.5795C5.27933 11.7605 4.17389 10.96 3.2968 9.94414C2.43673 8.948 1.83334 7.78167 1.83334 6.26586H0.833344C0.833344 8.08462 1.56977 9.47406 2.53989 10.5977C3.49299 11.7015 4.70813 12.5848 5.65959 13.3562L6.28941 12.5795ZM1.83334 6.26586C1.83334 4.77788 2.6508 3.53779 3.75446 3.0189C4.8225 2.51675 6.2614 2.64609 7.63493 4.11391L8.3651 3.43065C6.73873 1.69264 4.8443 1.40148 3.32898 2.11393C1.84927 2.80963 0.833344 4.41925 0.833344 6.26586H1.83334ZM5.65959 13.3562C6.00101 13.6331 6.36761 13.9284 6.73924 14.1517C7.11036 14.3748 7.53614 14.5576 8.00001 14.5576V13.5576C7.79721 13.5576 7.55632 13.4761 7.2544 13.2946C6.95299 13.1135 6.64017 12.8639 6.28941 12.5795L5.65959 13.3562ZM10.3404 13.3562C11.2919 12.5848 12.507 11.7015 13.4601 10.5977C14.4303 9.47406 15.1667 8.08462 15.1667 6.26586H14.1667C14.1667 7.78167 13.5633 8.948 12.7032 9.94414C11.8261 10.96 10.7207 11.7605 9.71061 12.5795L10.3404 13.3562ZM15.1667 6.26586C15.1667 4.41925 14.1507 2.80963 12.671 2.11393C11.1557 1.40148 9.26129 1.69264 7.63493 3.43065L8.3651 4.11391C9.73862 2.64609 11.1775 2.51675 12.2456 3.0189C13.3492 3.53779 14.1667 4.77788 14.1667 6.26586H15.1667ZM9.71061 12.5795C9.35985 12.8639 9.04703 13.1135 8.74562 13.2946C8.4437 13.4761 8.20281 13.5576 8.00001 13.5576V14.5576C8.46388 14.5576 8.88966 14.3748 9.26078 14.1517C9.63241 13.9284 9.99901 13.6331 10.3404 13.3562L9.71061 12.5795Z" fill="#353B40"/>
</svg>
