<svg width="384" height="244" viewBox="0 0 384 244" fill="none" xmlns="http://www.w3.org/2000/svg">
<path opacity="0.15" d="M121.744 27.0739C111.975 42.1217 107.848 60.627 96.8066 74.8569C86.5827 87.9808 72.2691 93.26 56.6822 97.2381C42.8148 100.77 29.1333 106.254 18.3145 115.613C7.49571 124.973 -0.209434 138.636 0.00434005 152.94C0.114554 158.237 1.26707 163.46 3.39608 168.311C5.52509 173.162 8.58888 177.547 12.4125 181.214C21.8185 190.137 35.277 194.226 43.7257 204.06C49.6277 210.956 53.0202 220.53 61.0413 224.712C75.2898 232.148 97.5502 224.768 112.254 222.853C132.507 220.167 153.503 220.279 173.031 226.887C184.026 230.605 194.306 236.284 205.413 239.658C223.556 245.169 242.944 244.305 261.868 243.115C285.457 241.675 309.205 239.872 332.013 233.663C344.096 230.363 356.123 225.716 365.91 217.862C375.698 210.008 383.068 198.492 383.821 185.954C384.75 169.726 374.526 154.455 361.133 145.188C347.74 135.922 331.688 131.618 315.887 127.826C303.368 124.824 288.803 120.335 284.704 108.131C282.938 102.871 283.589 97.1265 284.565 91.6614C286.191 82.6178 288.682 73.6765 289.147 64.4936C289.742 52.4107 286.786 39.9282 274.964 35.5876C260.966 30.4571 245.416 31.8698 230.796 31.34C214.754 30.7545 197.122 27.0925 187.549 14.201C185.383 11.2918 183.701 7.97367 181.089 5.45486C176.73 1.26304 170.335 -0.121841 164.285 0.00828255C150.343 0.370768 137.414 8.19674 128.176 18.5973C125.822 21.2572 123.672 24.0908 121.744 27.0739Z" fill="#EAFF44"/>
<path d="M185.616 39.4448H149.33V105.259H185.616V39.4448Z" stroke="#564033" stroke-miterlimit="10"/>
<path d="M222.441 99.125H110.377V107.667H222.441V99.125Z" fill="#604335"/>
<path d="M222.441 99.125H110.377V103.261H222.441V99.125Z" fill="#6D4E3C"/>
<path d="M191.416 192.544C190.988 193.892 190.653 195.583 191.713 196.513C192.228 196.866 192.855 197.016 193.474 196.935C194.093 196.855 194.661 196.549 195.068 196.076C195.856 195.097 196.386 193.938 196.611 192.702C203.731 166.445 215.377 141.034 216.808 113.866C216.855 112.872 214.949 114.452 214.782 114.6C212.142 116.599 212.152 120.772 211.38 123.681C209.906 129.214 208.403 134.738 206.872 140.253C203.774 151.407 200.568 162.501 197.253 173.537C195.35 179.857 193.405 186.193 191.416 192.544Z" fill="#6D4E3C"/>
<path d="M239.365 150.356C242.014 161.724 245.109 172.979 248.892 184.096C249.626 186.252 251.262 187.311 252.452 185.137C253.502 183.278 252.387 179.718 251.941 177.775C249.227 166.148 246.513 154.539 243.167 143.051C241.61 138.213 240.368 133.28 239.449 128.282C238.854 124.49 238.705 120.623 237.897 116.868C237.7 115.459 237.047 114.153 236.038 113.151C233.491 111.022 232.218 113.56 232.376 115.725C232.636 119.313 233.751 123.068 234.411 126.609C235.908 134.574 237.534 142.493 239.365 150.356Z" fill="#6D4E3C"/>
<path d="M196.054 116.645L223.761 115.316L237.619 114.647C239.561 114.554 247.462 115.474 245.938 111.171C245.556 110.102 244.134 109.963 243.01 110C227.674 110.57 212.344 111.301 197.021 112.193C195.845 112.174 194.682 112.435 193.628 112.955C190.133 115.028 193.721 116.757 196.054 116.645Z" fill="#6D4E3C"/>
<path d="M237.618 114.647L223.76 115.326L196.053 116.645C193.906 116.748 190.737 115.326 192.865 113.485C193.817 114.085 194.928 114.383 196.053 114.34L223.76 113.002L237.618 112.333C239.161 112.268 244.45 112.825 245.816 110.911C245.869 110.991 245.91 111.078 245.937 111.171C247.452 115.484 239.57 114.554 237.618 114.647Z" fill="#604335"/>
<path d="M320.796 123.095C321.549 118.325 322.548 113.597 323.788 108.93C325.034 104.757 326.577 100.277 325.935 95.853C325.378 92.2096 322.747 89.412 319.615 87.7575C317.593 86.7075 315.381 86.0753 313.109 85.8986C295.849 84.2907 278.431 82.9709 261.06 81.7905C257.537 81.5488 254.702 84.6904 253.457 87.7297C249.931 96.592 246.899 105.643 244.376 114.842C243.066 119.489 241.802 124.09 240.528 128.728C239.775 131.516 239.599 137.948 235.769 137.827C227.321 137.567 218.872 136.898 210.479 135.968C208.62 135.745 206.51 135.55 204.977 136.665C204.178 137.338 203.542 138.183 203.118 139.138C200.559 144.037 199.061 149.421 198.722 154.938C198.63 155.615 198.716 156.304 198.973 156.937C199.474 157.931 200.655 158.34 201.761 158.656C207.3 160.267 212.877 161.816 218.491 163.303C227.497 165.655 236.559 167.811 245.733 169.428C251.241 170.531 256.804 171.338 262.398 171.845C267.222 172.17 271.618 170.767 276.34 171.101C283.59 171.616 290.842 172.142 298.098 172.681C301.816 172.951 305.534 173.248 309.252 173.49C311.166 173.62 311.39 173.908 312.189 172.421C312.988 170.934 312.812 168.257 313.053 166.677C315.237 152.048 318.035 137.576 320.796 123.095Z" fill="#EFA135"/>
<path d="M313.285 164.605C313.183 165.274 313.071 165.943 312.969 166.612C312.718 168.192 312.848 170.971 312.105 172.356C311.361 173.741 311.073 173.555 309.158 173.425C305.441 173.193 301.723 172.877 298.005 172.617C290.743 172.078 283.49 171.551 276.247 171.037C271.534 170.702 267.138 172.115 262.305 171.78C256.71 171.278 251.147 170.471 245.64 169.364C236.466 167.746 227.404 165.59 218.398 163.229C212.821 161.77 207.244 160.236 201.667 158.582C200.589 158.275 199.409 157.866 198.879 156.872C198.624 156.242 198.537 155.556 198.628 154.883C198.91 150.823 199.819 146.832 201.324 143.051C201.203 143.98 201.1 144.993 201.035 145.979C200.952 146.656 201.042 147.343 201.296 147.977C201.788 148.981 202.978 149.38 204.084 149.696C209.661 151.307 215.237 152.856 220.814 154.344C229.811 156.695 238.873 158.851 248.056 160.469C253.562 161.567 259.121 162.374 264.712 162.885C269.545 163.22 273.951 161.798 278.654 162.142C285.904 162.65 293.156 163.176 300.412 163.722C304.13 163.991 307.848 164.289 311.566 164.53C312.134 164.62 312.711 164.645 313.285 164.605Z" fill="#E58D23"/>
<path d="M311.956 173.723L319.865 174.401L323.583 174.717C325.21 174.857 325.805 178.807 326.13 180.015C324.271 180.703 321.241 180.136 319.233 180.071C304.855 179.597 290.42 179.142 276.163 177.496C273.021 177.134 269.963 177.06 266.812 176.948C259.429 176.534 252.084 175.602 244.831 174.16C235.667 172.543 226.604 170.386 217.598 168.025C212.021 166.563 206.445 165.014 200.868 163.378C199.79 163.071 198.609 162.662 198.08 161.668C197.819 161.036 197.732 160.346 197.829 159.67C197.961 157.498 198.272 155.34 198.758 153.219C198.693 153.768 198.656 154.316 198.619 154.874C198.528 155.547 198.614 156.233 198.87 156.863C199.372 157.857 200.552 158.266 201.658 158.573C207.235 160.19 212.811 161.724 218.388 163.22C227.394 165.581 236.457 167.737 245.63 169.354C251.137 170.462 256.701 171.269 262.295 171.771C267.119 172.106 271.515 170.693 276.237 171.028C283.493 171.542 290.746 172.068 297.995 172.608C302.68 172.951 307.318 173.323 311.956 173.723Z" fill="#6D4E3C"/>
<path d="M326.167 179.996C324.308 180.684 321.278 180.117 319.271 180.052C304.892 179.578 290.458 179.123 276.2 177.468C273.059 177.115 270.001 177.041 266.859 176.938C259.473 176.52 252.125 175.589 244.868 174.15C235.704 172.533 226.642 170.376 217.635 168.016C212.059 166.553 206.482 165.004 200.905 163.368C199.827 163.062 198.647 162.653 198.117 161.658C197.856 161.026 197.77 160.337 197.866 159.66C197.866 159.084 197.95 158.498 198.005 157.922C198.035 158.015 198.072 158.105 198.117 158.191C198.619 159.186 199.799 159.586 200.905 159.902C206.445 161.513 212.022 163.062 217.635 164.549C226.642 166.91 235.704 169.057 244.868 170.683C252.124 172.126 259.473 173.058 266.859 173.472C270.001 173.583 273.059 173.657 276.2 174.011C290.495 175.646 304.892 176.121 319.271 176.595C321 176.641 323.472 177.069 325.312 176.753C325.654 177.818 325.94 178.901 326.167 179.996Z" fill="#604335"/>
<path d="M315.888 89.7656C314.263 93.2263 312.887 96.7982 311.77 100.454C310.895 103.915 310.209 107.421 309.716 110.957C307.439 124.657 303.889 138.106 300.347 151.537" stroke="#4F3629" stroke-width="0.5" stroke-miterlimit="10"/>
<path d="M239.729 137.892C262.426 144.02 285.287 149.495 308.313 154.315" stroke="#4F3629" stroke-width="0.5" stroke-miterlimit="10"/>
<path d="M259.182 146.769C259.126 147.336 258.94 147.875 258.922 148.442C258.909 148.683 258.96 148.924 259.07 149.139C259.306 149.432 259.633 149.638 260 149.725C260.447 149.896 260.925 149.969 261.403 149.938C261.931 149.832 262.399 149.529 262.714 149.093C263.032 148.661 263.291 148.189 263.485 147.689C263.603 147.472 263.67 147.23 263.68 146.983C263.672 146.797 263.631 146.615 263.56 146.444C263.119 145.348 262.279 144.46 261.208 143.962C260.925 143.81 260.614 143.719 260.294 143.693C259.974 143.667 259.652 143.708 259.349 143.813C257.899 144.408 259.284 145.691 259.182 146.769Z" fill="#6D4E3C"/>
<path d="M259.182 146.769C259.126 147.336 258.94 147.875 258.922 148.442C258.909 148.683 258.96 148.924 259.07 149.139C259.306 149.432 259.633 149.638 260 149.725C260.447 149.896 260.925 149.969 261.403 149.938C261.931 149.832 262.399 149.529 262.714 149.093C263.032 148.661 263.291 148.189 263.485 147.689C263.603 147.472 263.67 147.23 263.68 146.983C263.672 146.797 263.631 146.615 263.56 146.444C263.119 145.348 262.279 144.46 261.208 143.962C260.925 143.81 260.614 143.719 260.294 143.693C259.974 143.667 259.652 143.708 259.349 143.813C257.899 144.408 259.284 145.691 259.182 146.769Z" fill="#564033"/>
<path d="M272.417 166.705C269.768 175.442 266.989 184.039 264.842 192.925C263.504 198.418 262.537 203.995 261.496 209.544C261.189 211.189 261.366 213.522 263.03 213.717C264.452 213.893 265.307 212.211 265.725 210.835L275.512 178.518C281.284 159.493 287.084 140.411 290.448 120.8C284.76 119.089 285.271 122.659 283.887 127.027C282.232 132.232 280.702 137.474 279.295 142.753C277.817 148.274 276.042 154.102 274.443 159.734C273.802 162.077 273.114 164.428 272.417 166.705Z" fill="#6D4E3C"/>
<path d="M328.017 195.333C327.388 194.588 326.96 193.696 326.772 192.739C324.606 181.837 321.53 171.139 318.453 160.45L307.411 122.092C307.207 121.386 307.606 120.856 307.56 120.122C309.048 119.818 310.591 119.941 312.012 120.475C313.062 120.856 314.614 128.756 315.014 130.039C318.184 140.142 320.247 150.431 323.017 160.618C325.03 168.016 326.837 175.452 328.435 182.924C329.16 186.336 331.558 190.202 331.382 193.715C331.214 197.08 329.346 196.894 328.017 195.333Z" fill="#6D4E3C"/>
<path d="M292.298 123.058C296.276 122.993 324.011 123.477 323.406 118.606C323.278 117.977 322.978 117.394 322.541 116.924C322.103 116.453 321.544 116.112 320.925 115.939C319.684 115.605 318.391 115.508 317.114 115.651L277.371 117.668C275.614 117.761 273.746 117.891 272.361 118.969C267.212 123.012 275.874 122.928 277.798 122.984C282.644 123.127 287.477 123.151 292.298 123.058Z" fill="#6D4E3C"/>
<path d="M323.407 118.606C324.011 123.486 296.276 122.993 292.298 123.058C287.465 123.139 282.638 123.114 277.817 122.984C275.958 122.928 267.705 122.984 271.999 119.266C273.718 119.907 276.776 119.889 277.817 119.926C282.638 120.068 287.465 120.096 292.298 120.009C295.839 119.944 318.127 120.316 322.626 116.998C323.056 117.434 323.33 117.999 323.407 118.606Z" fill="#604335"/>
<path d="M273.868 153.861C273.942 154.972 273.896 156.087 273.728 157.188C273.501 158.121 273.037 158.979 272.381 159.679C271.797 160.417 271.027 160.985 270.15 161.324C270.183 160.964 270.267 160.61 270.401 160.274C270.686 159.419 270.842 158.526 270.866 157.625C270.447 158.675 269.936 159.698 269.443 160.702C269.251 161.188 268.994 161.648 268.681 162.068C268.44 162.337 268.077 162.477 267.817 162.756C267.222 163.443 267.482 163.834 267.306 164.615C267.055 165.721 265.586 167.403 264.722 165.739C264.491 165.24 264.395 164.689 264.443 164.141C264.564 162.133 265.707 160.358 266.386 158.48C266.593 158.023 266.679 157.521 266.637 157.021C266.394 156.229 265.914 155.531 265.261 155.023C263.867 153.61 264.201 151.797 264.174 149.994C264.146 148.191 263.718 146.276 262.25 145.347C261.561 144.967 260.779 144.789 259.994 144.831C259.208 144.874 258.45 145.137 257.807 145.589C256.532 146.513 255.476 147.706 254.712 149.083C253.782 150.543 252.964 152.058 252.202 153.601C251.595 154.601 251.328 155.772 251.44 156.937C251.666 157.657 251.936 158.361 252.249 159.047C252.398 159.395 252.443 159.78 252.377 160.153C252.311 160.526 252.137 160.872 251.877 161.148C250.947 161.845 249.711 161.045 248.996 160.218C247.578 158.434 246.701 156.281 246.471 154.014C246.24 151.747 246.665 149.462 247.694 147.429C248.094 146.658 248.048 146.184 247.694 145.793C247.237 145.354 246.725 144.976 246.17 144.669C244.954 143.834 243.673 143.098 242.341 142.466C240.779 141.722 238.493 141.778 236.764 141.75L232.024 141.685C230.861 141.578 229.689 141.747 228.603 142.178C226.977 142.968 225.815 144.966 224.04 144.892C223.707 144.9 223.38 144.798 223.11 144.603C223.048 144.573 222.994 144.529 222.952 144.473C222.729 144.17 222.597 143.809 222.574 143.433C222.551 143.057 222.637 142.682 222.822 142.354C223.19 141.493 223.765 140.737 224.497 140.153C225.228 139.569 226.093 139.176 227.014 139.008C229.988 138.488 232.693 139.389 235.463 137.791C238.892 135.811 242.369 133.143 246.207 132.158C249.776 131.229 253.643 131.61 257.24 132.381C261.264 133.289 265.093 134.913 268.542 137.177C270.828 138.646 273.394 140.672 274.314 143.321C274.417 143.608 274.498 143.904 274.555 144.204C275.336 147.29 273.923 150.608 273.868 153.861Z" fill="#6D4E3C"/>
<path d="M251.123 133.626C252.068 134.455 252.788 135.51 253.215 136.693C253.484 137.427 253.633 138.208 253.94 138.933L253.828 138.738" stroke="#604335" stroke-width="0.5" stroke-linecap="round" stroke-linejoin="round"/>
<path d="M256.691 134.77C257.093 135.814 257.311 136.922 257.332 138.041C257.332 138.088 257.332 138.143 257.388 138.153C257.444 138.162 257.388 138.069 257.388 138.097" stroke="#604335" stroke-width="0.5" stroke-linecap="round" stroke-linejoin="round"/>
<path d="M260.279 134.277C260.604 135.507 260.742 136.779 260.688 138.05" stroke="#604335" stroke-width="0.5" stroke-linecap="round" stroke-linejoin="round"/>
<path d="M249.097 146.954C248.558 148.971 246.848 150.57 246.504 152.624C246.644 151.797 246.504 150.998 246.681 150.161C246.908 149.195 247.248 148.259 247.694 147.373C248.094 146.601 248.047 146.127 247.694 145.737C247.236 145.298 246.724 144.92 246.17 144.612C244.953 143.778 243.673 143.042 242.34 142.409C240.779 141.666 238.492 141.722 236.763 141.694L232.023 141.629C230.86 141.522 229.689 141.691 228.603 142.121C226.976 142.911 225.815 144.91 224.039 144.835C223.706 144.843 223.38 144.742 223.11 144.547C225.525 142.525 228.282 140.951 231.252 139.9C234.923 138.56 238.926 138.433 242.675 139.537C245.956 140.467 249.98 142.8 249.004 146.852L249.097 146.954Z" fill="#604335"/>
<path d="M252.276 159.047C252.471 159.642 252.378 161.714 251.235 161.11C250.993 160.951 250.803 160.725 250.687 160.46C249.624 158.384 249.259 156.021 249.646 153.721C249.966 151.897 250.743 150.183 251.904 148.739C252.905 147.261 254.031 145.871 255.269 144.585C256.838 143.294 258.677 142.373 260.65 141.889C261.498 141.7 262.384 141.765 263.195 142.076C264.007 142.386 264.709 142.929 265.214 143.637C266.469 145.319 266.311 147.54 266.394 149.529C266.394 150.459 266.394 151.444 266.552 152.318C266.71 153.461 267.482 154.474 267.751 155.589C267.855 156.098 267.917 156.614 267.937 157.132C268.021 158.443 268.049 159.763 268.039 161.082C268.685 160.055 269.244 158.976 269.712 157.857C269.908 157.411 270.038 156.928 270.242 156.5C270.447 156.073 270.874 155.72 270.949 155.264C270.944 154.808 270.875 154.354 270.744 153.916C270.653 153.445 270.613 152.965 270.623 152.485C270.66 151.761 270.927 151.067 271.385 150.505C271.59 150.245 271.832 150.022 272.045 149.771C272.625 148.979 272.95 148.029 272.975 147.048C273.136 146.468 273.397 145.921 273.746 145.43C273.858 145.245 274.676 144.287 274.676 144.139C275.336 147.262 273.923 150.58 273.867 153.833C273.942 154.944 273.895 156.059 273.728 157.16C273.5 158.093 273.036 158.951 272.38 159.651C271.797 160.389 271.026 160.957 270.149 161.296C270.182 160.936 270.266 160.582 270.4 160.246C270.685 159.391 270.842 158.498 270.865 157.597C270.447 158.647 269.935 159.67 269.443 160.673C269.25 161.16 268.994 161.62 268.681 162.04C268.439 162.309 268.077 162.449 267.816 162.728C267.221 163.415 267.482 163.806 267.305 164.586C267.054 165.693 265.586 167.375 264.721 165.711C264.491 165.212 264.395 164.661 264.442 164.112C264.563 162.105 265.706 160.33 266.385 158.452C266.592 157.995 266.679 157.493 266.636 156.993C266.394 156.201 265.913 155.503 265.26 154.995C263.866 153.582 264.201 151.769 264.173 149.966C264.145 148.163 263.717 146.248 262.249 145.319C261.56 144.939 260.778 144.761 259.993 144.803C259.207 144.846 258.45 145.108 257.806 145.561C256.531 146.485 255.475 147.678 254.711 149.055C253.782 150.515 252.964 152.03 252.202 153.572C251.594 154.573 251.327 155.744 251.439 156.909C251.673 157.639 251.952 158.353 252.276 159.047Z" fill="#604335"/>
<path d="M272.38 147.122C272.504 147.325 272.58 147.553 272.603 147.79C272.626 148.027 272.594 148.266 272.51 148.488C272.349 148.932 272.106 149.342 271.794 149.697C271.152 150.262 270.731 151.035 270.605 151.881C270.635 152.757 270.766 153.627 270.995 154.474C271.082 154.93 271.122 155.394 271.116 155.859C271.082 156.319 270.976 156.771 270.8 157.197C270.943 156.317 270.873 155.415 270.595 154.567C270.271 153.694 270.096 152.774 270.075 151.844C270.108 151.344 270.275 150.862 270.558 150.449C270.834 150.076 271.145 149.731 271.487 149.418C271.812 149.128 272.077 148.777 272.268 148.386C272.376 148.196 272.442 147.984 272.461 147.766C272.48 147.548 272.452 147.329 272.38 147.122Z" fill="#4F3629"/>
<path d="M232.376 133.403C232.738 133.277 233.135 133.297 233.482 133.459C233.826 133.598 234.142 133.812 234.477 133.988C235.127 134.332 235.917 134.574 236.261 135.225C236.366 135.432 236.438 135.655 236.475 135.884C236.559 136.208 236.56 136.548 236.479 136.873C236.398 137.198 236.237 137.497 236.01 137.743C235.792 137.905 235.537 138.011 235.268 138.053C235 138.095 234.725 138.072 234.467 137.985C233.947 137.808 233.993 137.362 233.817 136.879C233.244 135.761 232.762 134.598 232.376 133.403Z" fill="#604335"/>
<path d="M247.74 135.067C247.796 135.055 247.855 135.057 247.91 135.073C247.965 135.089 248.016 135.119 248.056 135.16C248.09 135.212 248.106 135.274 248.103 135.336C248.126 136.088 247.893 136.826 247.443 137.428C247.001 138.019 246.6 138.64 246.244 139.287C245.9 138.766 245.138 138.71 244.692 138.264C244.429 137.906 244.287 137.473 244.287 137.028C244.287 136.583 244.429 136.15 244.692 135.792C245.305 135.16 246.885 135.076 247.74 135.067Z" fill="#604335"/>
<path d="M241.206 144.603C243.464 143.897 245.853 142.698 246.243 140.058C246.336 139.349 246.285 138.628 246.095 137.939C245.905 137.249 245.58 136.605 245.137 136.043C244.011 134.953 242.537 134.295 240.973 134.184C239.53 133.845 238.022 133.897 236.605 134.332C232.999 135.736 234.198 141.136 236.41 143.246C237.033 143.854 237.798 144.296 238.636 144.533C239.473 144.77 240.357 144.794 241.206 144.603Z" fill="#6D4E3C"/>
<path d="M245.89 141.294C245.063 143.088 243.102 144.017 241.196 144.603C240.347 144.789 239.465 144.761 238.629 144.521C237.793 144.281 237.031 143.836 236.41 143.227C234.551 141.415 233.352 137.204 235.341 135.141C234.412 137.362 235.48 140.634 237.107 142.177C237.728 142.786 238.49 143.231 239.326 143.471C240.162 143.711 241.044 143.739 241.894 143.553C243.402 143.166 244.781 142.387 245.89 141.294Z" fill="#604335"/>
<path d="M236.336 140.133C236.804 140.026 237.29 140.026 237.758 140.133H236.336Z" fill="#4F3629"/>
<path d="M237.757 140.42H237.692C237.264 140.323 236.819 140.323 236.391 140.42C236.355 140.434 236.316 140.44 236.277 140.438C236.238 140.435 236.2 140.425 236.166 140.406C236.131 140.388 236.101 140.362 236.078 140.331C236.055 140.299 236.038 140.263 236.03 140.225C236.022 140.187 236.022 140.148 236.031 140.11C236.039 140.072 236.056 140.036 236.08 140.005C236.103 139.974 236.134 139.949 236.168 139.93C236.203 139.912 236.241 139.902 236.28 139.9C236.784 139.779 237.309 139.779 237.813 139.9C237.848 139.906 237.88 139.92 237.909 139.939C237.938 139.959 237.962 139.985 237.981 140.015C237.999 140.044 238.011 140.078 238.016 140.112C238.021 140.147 238.018 140.182 238.008 140.216C237.994 140.272 237.962 140.323 237.917 140.36C237.872 140.397 237.816 140.418 237.757 140.42Z" fill="#4F3629"/>
<path d="M241.401 140.922C241.677 140.972 241.938 141.081 242.168 141.241C242.397 141.401 242.589 141.61 242.73 141.852" fill="#4F3629"/>
<path d="M242.73 142.122C242.683 142.121 242.636 142.108 242.595 142.083C242.555 142.059 242.521 142.024 242.498 141.982C242.378 141.773 242.213 141.593 242.015 141.455C241.818 141.317 241.592 141.224 241.355 141.183C241.32 141.178 241.286 141.167 241.256 141.149C241.226 141.13 241.2 141.106 241.179 141.077C241.159 141.048 241.145 141.015 241.139 140.981C241.132 140.946 241.133 140.91 241.141 140.876C241.152 140.806 241.191 140.743 241.248 140.701C241.306 140.66 241.378 140.642 241.448 140.653C241.763 140.71 242.062 140.836 242.323 141.02C242.585 141.205 242.803 141.444 242.963 141.722C242.996 141.784 243.005 141.856 242.985 141.924C242.966 141.992 242.921 142.049 242.86 142.084C242.82 142.105 242.776 142.118 242.73 142.122Z" fill="#4F3629"/>
<path d="M240.193 142.177C240.117 142.094 240.023 142.031 239.918 141.992C239.813 141.953 239.7 141.94 239.589 141.954V142.001C239.424 141.973 239.254 141.999 239.105 142.075C239.053 142.125 239.011 142.184 238.982 142.251C238.954 142.317 238.939 142.389 238.939 142.461C238.939 142.533 238.954 142.605 238.982 142.671C239.011 142.737 239.053 142.797 239.105 142.847C239.337 143.038 239.633 143.134 239.933 143.116C240.024 143.12 240.114 143.098 240.193 143.051C240.233 143.021 240.267 142.984 240.293 142.941C240.318 142.898 240.335 142.85 240.342 142.8C240.368 142.692 240.368 142.579 240.342 142.471C240.316 142.363 240.265 142.262 240.193 142.177Z" fill="#4F3629"/>
<path d="M113.062 107.983C113.089 108.009 113.121 108.028 113.157 108.039C113.192 108.051 113.23 108.054 113.267 108.048C113.31 108.036 113.35 108.015 113.383 107.987C113.417 107.958 113.444 107.921 113.462 107.881C113.528 107.745 113.56 107.595 113.555 107.444C113.543 107.274 113.485 107.11 113.387 106.971C113.289 106.831 113.154 106.722 112.997 106.654C112.824 106.556 112.622 106.524 112.428 106.564C112.233 106.603 112.059 106.711 111.938 106.868C111.71 107.124 111.581 107.454 111.575 107.797C111.581 107.979 111.629 108.158 111.714 108.319C111.799 108.48 111.92 108.619 112.068 108.727C112.272 108.821 112.463 108.943 112.635 109.089C112.778 109.26 112.862 109.472 112.876 109.695C112.889 109.917 112.831 110.138 112.709 110.325C112.842 110.253 112.959 110.154 113.052 110.035C113.146 109.916 113.214 109.779 113.252 109.633C113.29 109.487 113.298 109.334 113.275 109.184C113.252 109.035 113.199 108.892 113.118 108.764C112.959 108.521 112.75 108.315 112.505 108.16C112.448 108.113 112.403 108.055 112.373 107.989C112.342 107.923 112.327 107.851 112.328 107.778C112.333 107.608 112.388 107.444 112.486 107.304C112.486 107.174 112.616 107.156 112.774 107.174C112.862 107.194 112.945 107.232 113.018 107.287C113.09 107.341 113.149 107.411 113.192 107.49C113.237 107.59 113.259 107.697 113.257 107.806C113.267 107.918 113.211 108.002 113.062 107.983Z" fill="#EAAD83"/>
<path d="M147.118 210.241C146.746 211.171 145.64 211.561 144.674 211.858C135.472 214.749 127.758 221.283 118.547 224.164C110.879 226.562 102.523 226.256 94.7248 224.276C89.379 222.855 84.2099 220.838 79.3146 218.262C75.3179 216.208 71.3213 212.964 66.99 211.7C65.7074 211.319 63.2072 211.58 61.6736 210.91C61.3473 210.795 61.0563 210.598 60.8284 210.337C60.6005 210.077 60.4434 209.762 60.3724 209.423C60.2841 208.885 60.2841 208.335 60.3724 207.797C61.3268 198.916 62.7353 190.09 64.5921 181.354C66.1443 174.206 74.8997 174.736 80.7273 176.344C85.83 177.757 90.5888 180.248 95.7565 181.419C104.215 183.324 113.044 181.54 121.437 179.29C125.034 178.361 128.659 177.264 132.386 177.255C133.727 177.188 135.065 177.44 136.29 177.989C139.311 179.523 140.175 183.343 140.723 186.68C141.327 190.49 141.95 194.301 142.582 198.112C143.056 201.086 143.595 204.218 145.501 206.551C146.274 207.323 146.862 208.261 147.22 209.293C147.274 209.613 147.239 209.941 147.118 210.241Z" fill="#6D4E3C"/>
<path d="M147.118 210.241C146.746 211.17 145.64 211.56 144.674 211.858C135.472 214.748 127.758 221.282 118.547 224.164C110.879 226.562 102.523 226.255 94.7251 224.275C89.3793 222.854 84.2101 220.837 79.3148 218.262C75.3182 216.208 71.3215 212.964 66.9903 211.7C65.7076 211.319 63.2074 211.579 61.6738 210.91C62.3337 210.733 62.9379 210.594 63.384 210.482C67.7311 209.264 72.2986 209.051 76.7402 209.859C90.8028 212.369 105.126 216.366 119.123 213.577C123.659 212.648 128.037 211.058 132.563 210.11C137.379 209.094 142.324 208.831 147.22 209.33C147.268 209.637 147.232 209.951 147.118 210.241Z" fill="#604335"/>
<path d="M84.9749 193.408C87.0894 196.333 89.8297 198.75 92.9961 200.482C98.2661 203.595 104.307 205.603 110.414 205.398C116.52 205.194 122.692 202.61 126.512 197.842C127.747 196.417 128.57 194.681 128.891 192.823C129.044 191.895 128.963 190.943 128.657 190.054C128.35 189.165 127.827 188.366 127.135 187.73C125.844 186.819 124.317 186.303 122.738 186.242C117.905 185.713 112.979 186.168 108.211 185.211C104.847 184.532 101.649 183.166 98.3032 182.422C94.9572 181.679 86.8152 179.857 83.8968 182.088C80.6716 184.523 83.2554 190.871 84.9749 193.408Z" fill="#664839"/>
<path d="M63.7468 210.966C68.8309 208.846 74.5935 209.162 80.0029 210.175C85.4123 211.189 90.7102 212.862 96.1846 213.363C99.7723 213.689 103.388 213.512 106.985 213.745C109.586 214.04 112.203 214.173 114.82 214.144C119.681 213.837 124.198 211.635 128.864 210.231C133.13 208.941 137.569 208.314 142.025 208.372" stroke="#4F3629" stroke-width="0.5" stroke-linecap="round" stroke-linejoin="round"/>
<path d="M119.04 114.126C123.563 115.959 127.739 118.556 131.383 121.803C131.579 121.991 131.797 122.153 132.033 122.286C132.363 122.414 132.712 122.487 133.065 122.5C135.581 122.725 138.071 123.186 140.501 123.876C142.555 124.471 145.204 125 146.886 126.376C147.005 126.449 147.103 126.552 147.172 126.674C147.24 126.796 147.276 126.933 147.276 127.073C147.276 127.213 147.24 127.35 147.172 127.473C147.103 127.595 147.005 127.697 146.886 127.77C144.779 130.159 142.911 132.749 141.309 135.503C139.069 139.704 138.158 144.491 136.011 148.729C135.695 149.352 135.231 150.049 134.533 150.077C134.163 150.052 133.803 149.94 133.483 149.752C131.801 148.971 129.914 148.729 128.195 148.014C126.593 147.229 125.068 146.295 123.64 145.225C120.993 143.479 118.135 142.073 115.136 141.043C113.967 140.703 112.832 140.259 111.743 139.714C110.647 139.162 109.788 138.23 109.327 137.093C108.769 135.503 109.373 133.756 110.135 132.259C111.939 128.718 114.69 125.753 116.576 122.231C117.898 119.767 118.776 117.089 119.17 114.321C119.198 114.553 119.077 113.931 119.04 114.126Z" fill="#E9A72C"/>
<path d="M132.117 125.874C134.02 125.651 135.949 125.833 137.776 126.408C139.604 126.983 141.29 127.938 142.722 129.211" stroke="#E58D23" stroke-width="0.5" stroke-linecap="round" stroke-linejoin="round"/>
<path d="M129.784 129.685C131.686 129.459 133.615 129.638 135.443 130.212C137.271 130.785 138.957 131.74 140.389 133.013" stroke="#E58D23" stroke-width="0.5" stroke-linecap="round" stroke-linejoin="round"/>
<path d="M127.451 133.487C129.354 133.26 131.282 133.44 133.111 134.013C134.939 134.587 136.624 135.541 138.056 136.814" stroke="#E58D23" stroke-width="0.5" stroke-linecap="round" stroke-linejoin="round"/>
<path d="M125.118 137.288C127.021 137.062 128.95 137.243 130.779 137.818C132.607 138.393 134.292 139.35 135.723 140.625" stroke="#E58D23" stroke-width="0.5" stroke-linecap="round" stroke-linejoin="round"/>
<path d="M122.785 141.09C124.688 140.864 126.617 141.045 128.446 141.62C130.274 142.195 131.959 143.152 133.39 144.427" stroke="#E58D23" stroke-width="0.5" stroke-linecap="round" stroke-linejoin="round"/>
<path d="M128.873 123.532C127.862 121.904 126.518 120.509 124.929 119.439C123.339 118.369 121.541 117.647 119.653 117.323" stroke="#E58D23" stroke-width="0.5" stroke-linecap="round" stroke-linejoin="round"/>
<path d="M127.358 127.761C126.348 126.134 125.004 124.74 123.414 123.671C121.825 122.602 120.026 121.883 118.138 121.562" stroke="#E58D23" stroke-width="0.5" stroke-linecap="round" stroke-linejoin="round"/>
<path d="M125.87 131.963C124.857 130.335 123.511 128.94 121.92 127.87C120.33 126.8 118.53 126.079 116.641 125.754" stroke="#E58D23" stroke-width="0.5" stroke-linecap="round" stroke-linejoin="round"/>
<path d="M124.337 136.164C123.326 134.535 121.98 133.139 120.389 132.069C118.798 130.999 116.998 130.278 115.108 129.955" stroke="#E58D23" stroke-width="0.5" stroke-linecap="round" stroke-linejoin="round"/>
<path d="M122.822 140.356C121.809 138.728 120.463 137.333 118.872 136.263C117.281 135.193 115.482 134.472 113.592 134.147" stroke="#E58D23" stroke-width="0.5" stroke-linecap="round" stroke-linejoin="round"/>
<path d="M136.457 147.903C136.327 148.182 136.206 148.46 136.066 148.73C135.75 149.353 135.286 150.05 134.589 150.068C134.22 150.056 133.861 149.947 133.548 149.752C131.856 148.972 129.969 148.739 128.25 148.024C126.646 147.242 125.121 146.308 123.695 145.235C121.046 143.495 118.189 142.093 115.191 141.062C114.025 140.724 112.892 140.279 111.808 139.733C110.711 139.182 109.85 138.255 109.382 137.121C108.824 135.532 109.382 133.775 110.19 132.269C111.994 128.737 114.735 125.763 116.632 122.25C117.951 119.792 118.829 117.121 119.225 114.359C119.225 114.415 119.15 114.229 119.104 114.126C120.699 114.771 122.251 115.516 123.751 116.357C123.287 118.033 122.636 119.651 121.809 121.181C119.95 124.685 117.161 127.687 115.377 131.2C114.605 132.706 114.02 134.463 114.568 136.052C115.03 137.187 115.889 138.116 116.985 138.664C118.074 139.208 119.21 139.656 120.377 140.002C123.38 141.028 126.241 142.43 128.891 144.176C130.314 145.247 131.836 146.181 133.436 146.964C134.423 147.337 135.432 147.651 136.457 147.903Z" fill="#E58D23"/>
<path d="M131.271 122.9C126.893 129.025 124.058 135.913 121.549 142.977" stroke="#4F3629" stroke-width="0.5" stroke-linecap="round" stroke-linejoin="round"/>
<path d="M122.478 104.014C122.069 109.228 121.363 114.601 118.686 119.09C118.481 119.523 118.159 119.89 117.757 120.149C117.304 120.325 116.813 120.376 116.334 120.298L110.646 119.871C110.756 120.091 110.773 120.346 110.695 120.58C110.616 120.813 110.449 121.006 110.228 121.116C109.786 121.33 109.297 121.429 108.806 121.404L103.387 121.516C103.061 121.555 102.731 121.476 102.458 121.293C102.114 120.967 102.207 120.41 102.337 119.954C103.707 114.908 105.492 109.984 107.672 105.232C108.191 103.994 108.859 102.823 109.661 101.746C110.646 100.605 111.773 99.5963 113.016 98.7442C114.671 97.4894 119.318 92.9444 121.558 94.4594C123.798 95.9744 122.655 101.756 122.478 104.014Z" fill="#F2C19F"/>
<path d="M153.252 200.779C154.532 200.71 155.805 200.551 157.063 200.305C157.14 200.315 157.218 200.315 157.295 200.305C158.42 200.11 159.535 199.877 160.66 199.692C163.306 199.258 165.933 198.706 168.541 198.037C170.131 197.637 171.804 197.284 173.356 196.81C173.766 196.704 174.147 196.506 174.469 196.23C174.791 195.955 175.046 195.61 175.215 195.221C175.341 194.876 175.373 194.504 175.308 194.143C175.192 193.639 174.965 193.169 174.644 192.765C174.322 192.361 173.914 192.035 173.449 191.81C172.536 191.376 171.549 191.12 170.54 191.057C166.952 190.648 163.29 190.787 159.749 189.951C158.095 189.703 156.551 188.976 155.306 187.86C154.265 186.735 153.707 185.22 152.769 184.012C152.53 183.627 152.171 183.333 151.746 183.175C151.273 183.149 150.8 183.215 150.352 183.37C149.543 183.51 148.707 183.222 147.908 183.37C147.029 183.689 146.27 184.27 145.733 185.034C145.569 185.198 145.448 185.399 145.38 185.62C145.355 185.841 145.387 186.065 145.472 186.27C145.714 187.079 145.956 187.887 146.17 188.696C146.486 189.821 146.764 190.964 146.987 192.135C147.145 192.841 147.294 193.669 147.48 194.524C147.973 196.838 148.735 199.385 150.594 200.361C151.431 200.72 152.345 200.864 153.252 200.779Z" fill="#EFA135"/>
<path d="M175.178 195.184C175.013 195.575 174.759 195.922 174.436 196.198C174.114 196.474 173.731 196.671 173.319 196.773C171.767 197.256 170.094 197.6 168.505 198C165.902 198.669 163.272 199.22 160.614 199.654C159.507 199.84 158.383 200.072 157.268 200.268H157.026C155.77 200.504 154.5 200.663 153.224 200.742C152.31 200.831 151.389 200.683 150.548 200.314C149.371 199.526 148.527 198.331 148.177 196.959C148.57 197.639 149.138 198.2 149.823 198.585C150.66 198.957 151.578 199.108 152.49 199.022C153.769 198.944 155.042 198.786 156.301 198.548H156.543C157.658 198.344 158.783 198.111 159.889 197.935C162.547 197.489 165.177 196.949 167.78 196.271C169.369 195.881 171.042 195.527 172.594 195.044C173.006 194.942 173.389 194.745 173.711 194.469C174.034 194.193 174.288 193.846 174.453 193.455C174.556 193.176 174.588 192.875 174.546 192.581C174.96 192.999 175.236 193.535 175.336 194.115C175.384 194.479 175.329 194.849 175.178 195.184Z" fill="#E58D23"/>
<path d="M149.869 209.041C151.151 208.963 152.427 208.805 153.689 208.567H153.921C155.037 208.363 156.161 208.131 157.277 207.954C159.923 207.514 162.55 206.963 165.158 206.3C166.748 205.9 168.421 205.547 169.973 205.073C170.383 204.967 170.764 204.768 171.086 204.493C171.408 204.217 171.663 203.872 171.832 203.483C171.958 203.139 171.99 202.766 171.925 202.405C171.813 201.901 171.587 201.428 171.265 201.024C170.943 200.62 170.533 200.294 170.066 200.072C169.157 199.637 168.172 199.382 167.166 199.319C163.569 198.91 159.907 199.05 156.366 198.213C154.714 197.968 153.172 197.24 151.932 196.122C150.882 194.998 150.334 193.482 149.386 192.274C149.15 191.887 148.789 191.592 148.363 191.438C147.89 191.412 147.417 191.478 146.969 191.633C146.161 191.772 145.333 191.484 144.534 191.633C143.652 191.949 142.889 192.53 142.35 193.297C142.186 193.46 142.065 193.661 141.997 193.882C141.977 194.103 142.009 194.326 142.09 194.533C142.331 195.341 142.573 196.15 142.787 196.949C143.103 198.083 143.391 199.217 143.614 200.398C143.763 201.104 143.911 201.931 144.097 202.786C144.59 205.101 145.361 207.647 147.22 208.614C148.052 208.981 148.964 209.129 149.869 209.041Z" fill="#EFA135"/>
<path d="M171.795 203.465C171.63 203.857 171.376 204.204 171.054 204.48C170.731 204.756 170.348 204.952 169.936 205.055C168.375 205.538 166.702 205.882 165.113 206.282C162.51 206.942 159.88 207.499 157.231 207.936C156.116 208.122 154.991 208.354 153.876 208.549H153.634C152.378 208.786 151.108 208.945 149.832 209.024C148.918 209.113 147.997 208.965 147.156 208.596C145.473 207.713 144.683 205.519 144.191 203.4C144.582 204.511 145.347 205.451 146.356 206.059C147.193 206.43 148.112 206.581 149.024 206.495C150.303 206.417 151.575 206.259 152.835 206.021H153.076C154.192 205.817 155.316 205.575 156.432 205.408C159.08 204.962 161.711 204.413 164.313 203.744C165.903 203.345 167.576 203.001 169.137 202.517C169.541 202.409 169.914 202.209 170.228 201.933C170.542 201.658 170.789 201.314 170.95 200.928C170.95 200.882 170.95 200.826 170.996 200.789C171.433 201.224 171.728 201.781 171.842 202.387C171.922 202.744 171.906 203.116 171.795 203.465Z" fill="#E58D23"/>
<path d="M138.716 137.986L135.705 144.724C135.531 145.034 135.439 145.382 135.435 145.737C135.514 146.157 135.715 146.545 136.011 146.853L138.707 150.199C138.789 150.336 138.913 150.443 139.06 150.505C139.413 150.608 139.711 150.217 139.869 149.883L143.01 143.479C143.666 142.51 144.048 141.382 144.117 140.214C144.186 139.046 143.938 137.882 143.4 136.843C143.277 136.388 143.051 135.969 142.741 135.616C141.049 133.961 139.292 136.694 138.716 137.986Z" fill="#F2C19F"/>
<path d="M160.26 195.1C155.352 194.208 150.286 195.126 146.002 197.684C145.372 198.141 144.663 198.478 143.911 198.678C139.264 199.533 141.123 188.966 138.437 186.493C135.751 184.021 134.059 187.302 131.931 189.012C127.503 192.745 122.233 195.345 116.576 196.587C108.304 198.241 95.8586 196.475 89.3245 190.769C85.393 187.339 83.1902 182.292 82.2235 177.171C81.2569 172.05 81.4056 166.798 81.4428 161.584C81.5172 154.83 81.4211 148.076 81.1547 141.322C80.9874 136.675 79.7884 130.893 84.4449 127.836C87.0939 126.098 90.3469 126.599 93.2933 125.977C96.4255 125.261 97.8476 123.095 100.06 120.911C100.461 120.457 100.951 120.09 101.5 119.833C102.102 119.649 102.735 119.592 103.359 119.666L111.343 120.075C111.108 121.819 111.396 123.593 112.17 125.173C112.944 126.754 114.171 128.068 115.693 128.951C118.379 130.447 121.762 130.457 124.318 132.185C128.575 135.085 127.33 141.777 127.971 146.127C128.176 147.54 128.603 149.148 129.904 149.706C131.931 150.561 133.752 148.191 134.672 146.192C136.959 148.051 139.468 150.356 139.199 153.275C138.937 154.714 138.331 156.07 137.433 157.225C136.693 158.614 135.815 159.925 134.812 161.138C133.985 161.974 133.269 162.848 132.46 163.712C131.773 164.45 130.94 165.037 130.013 165.436C129.087 165.834 128.087 166.035 127.079 166.027C126.267 166.012 125.466 165.834 124.725 165.501C123.983 165.169 123.317 164.69 122.766 164.093C121.976 163.164 122.413 161.37 122.339 160.199C122.291 159.413 122.192 158.63 122.041 157.857C121.195 158.907 121.233 160.543 121.112 161.9C121.112 162.067 121.112 162.244 121.065 162.411C120.861 164.27 120.591 166.129 120.424 167.923C120.377 168.462 120.34 168.982 120.312 169.512C120.219 171.315 121.874 171.966 123.5 171.427L126.837 170.572L141.262 166.854C147.945 165.144 155.139 171.947 157.397 177.719C158.33 180.458 158.917 183.302 159.145 186.186C159.535 189.179 159.907 192.15 160.26 195.1Z" fill="#C64607"/>
<path d="M122.738 159.539C122.757 160.027 122.71 160.514 122.599 160.989C122.471 161.455 122.43 161.94 122.478 162.421C122.236 160.896 122.366 159.372 122.05 157.848C122.05 157.913 121.762 158.275 121.725 158.359C121.625 158.558 121.544 158.767 121.483 158.982C121.364 159.41 121.286 159.849 121.251 160.292C121.158 161.222 121.074 162.105 120.935 163.034L120.712 164.419C120.581 163.511 120.556 162.591 120.637 161.677C120.793 160.841 120.902 159.997 120.963 159.149C121.111 157.29 121.186 155.431 121.269 153.628C121.427 150.022 121.595 146.397 121.743 142.781C121.864 145.755 122.004 148.73 122.134 151.704C122.199 153.21 122.264 154.706 122.385 156.203C122.487 157.318 122.691 158.424 122.738 159.539Z" fill="#4F3629"/>
<path d="M160.26 194.914C155.352 194.022 150.286 194.94 146.002 197.498C145.372 197.955 144.663 198.292 143.911 198.492C139.264 199.348 141.123 188.78 138.437 186.307C135.751 183.835 134.059 187.116 131.931 188.826C127.5 192.55 122.23 195.14 116.576 196.373C108.304 198.028 95.8586 196.262 89.3245 190.555C85.393 187.125 83.1902 182.078 82.2235 176.957C81.2569 171.836 81.4056 166.594 81.4428 161.389C81.5172 154.622 81.4211 147.862 81.1547 141.108C80.9874 136.461 79.7884 130.68 84.4449 127.631C84.6718 127.47 84.9147 127.333 85.1699 127.222C85.1699 129.146 85.3651 131.126 85.4209 132.929C85.6935 139.677 85.7895 146.434 85.709 153.2C85.709 158.405 85.5231 163.657 86.4897 168.778C87.4563 173.899 89.6591 178.955 93.5907 182.366C100.097 188.073 112.579 189.802 120.852 188.185C126.507 186.954 131.777 184.364 136.206 180.638C138.297 178.928 140.007 175.674 142.712 178.128C145.417 180.582 143.558 191.14 148.187 190.304C148.933 190.12 149.641 189.805 150.278 189.375C153.003 187.732 156.075 186.749 159.247 186.503C159.572 189.272 159.926 192.089 160.26 194.914Z" fill="#B73E08"/>
<path d="M126.874 170.563C125.847 171.246 124.734 171.793 123.566 172.189C119.634 173.593 115.145 174.541 111.418 172.654C113.937 173.927 117.729 169.094 119.55 168.211C119.846 168.071 120.158 167.971 120.48 167.914C120.433 168.453 120.396 168.973 120.368 169.503C120.275 171.306 121.93 171.957 123.556 171.418L126.874 170.563Z" fill="#B73E08"/>
<path d="M89.5196 138.264C89.1199 140.383 88.0975 142.335 87.5399 144.417C87.0926 146.41 86.8559 148.444 86.8335 150.486C86.6941 153.386 86.5918 156.426 87.8838 159.019C89.8263 162.932 94.3899 164.763 98.6561 165.618C103.22 166.547 102.708 162.95 102.049 159.669C101.445 156.662 101.388 153.57 101.881 150.542C102.098 148.504 102.891 146.569 104.168 144.965C105.097 143.887 106.417 143.153 107.486 142.177C109.297 140.368 110.53 138.061 111.027 135.55C112.207 130.419 111.91 124.731 112.207 119.489C112.328 117.24 112.44 114.907 111.566 112.844C111.008 111.524 110.088 110.39 109.549 109.07C108.759 107.137 109.884 102.564 112.719 102.898C114.122 103.047 114.708 105.231 115.07 106.319C115.927 109.085 116.36 111.965 116.353 114.861C117.454 112.345 118.03 109.632 118.044 106.886C117.98 106.086 118.069 105.282 118.305 104.516C118.629 103.848 119.07 103.244 119.606 102.731C123.045 98.8275 124.467 91.7544 119.857 88.0737C117.775 86.41 115.024 85.8709 112.365 85.6479C102.142 84.7835 94.2226 91.0387 91.8525 100.947C91.2714 103.703 90.8986 106.499 90.7372 109.312L89.5103 124.36C89.2457 126.481 89.199 128.623 89.3709 130.754C89.8019 133.235 89.8521 135.768 89.5196 138.264Z" fill="#6D4E3C"/>
<path d="M105.293 92.2471C102.476 93.2658 100.105 95.2389 98.592 97.8238C97.0455 100.351 96.0627 103.182 95.7107 106.124C95.3495 109.065 95.188 112.028 95.2273 114.991L95.1437 123.895L95.0786 128.347C95.0786 129.834 95.0786 131.321 94.9578 132.818C94.8753 134.312 94.6576 135.796 94.3072 137.251C93.914 138.689 93.4486 140.107 92.913 141.499C92.4018 142.884 91.8906 144.287 91.5002 145.7C91.1213 147.129 90.8847 148.592 90.7939 150.068C90.5987 153.024 90.6451 155.998 90.5708 158.972C90.5708 155.998 90.45 153.033 90.5708 150.05C90.6483 148.559 90.8756 147.08 91.2493 145.635C91.6304 144.185 92.1323 142.791 92.6342 141.387C93.1571 140.003 93.6039 138.591 93.9726 137.158C94.3141 135.725 94.5164 134.262 94.5767 132.79C94.7254 129.843 94.6232 126.86 94.6883 123.895L94.8556 114.981C94.8419 112.004 95.0282 109.03 95.4132 106.077C95.7971 103.106 96.818 100.253 98.4061 97.7122C99.9935 95.1424 102.43 93.209 105.293 92.2471Z" fill="#4F3629"/>
<path d="M107.812 100.445C105.701 102.029 104.159 104.253 103.415 106.784C102.676 109.294 102.282 111.892 102.244 114.508L101.947 122.371C101.844 124.992 101.798 127.622 101.519 130.243C101.238 132.879 100.613 135.466 99.6603 137.939C98.7308 140.412 97.6991 142.819 96.8719 145.301C95.1989 150.292 95.4778 155.655 95.7845 160.869C95.5072 158.254 95.3645 155.626 95.3569 152.996C95.3735 150.355 95.7679 147.729 96.528 145.198C97.2902 142.67 98.3869 140.254 99.2327 137.763C100.154 135.32 100.747 132.767 100.999 130.169C101.296 127.576 101.352 124.955 101.473 122.325C101.594 119.694 101.686 117.082 101.835 114.461C101.908 111.82 102.349 109.201 103.146 106.682C103.987 104.154 105.624 101.966 107.812 100.445Z" fill="#4F3629"/>
<path d="M107.04 122.017C106.929 121.934 107.114 121.766 107.217 121.869C107.319 121.971 107.31 122.082 107.319 122.194V122.844C107.319 123.291 107.319 123.727 107.319 124.164C107.319 125.038 107.254 125.921 107.18 126.795C107.041 128.551 106.787 130.296 106.417 132.018C105.704 135.484 104.242 138.751 102.133 141.591C103.048 140.116 103.829 138.56 104.465 136.944C105.093 135.319 105.593 133.647 105.962 131.944C106.344 130.241 106.633 128.519 106.826 126.785C106.938 125.921 107.021 125.047 107.087 124.183C107.13 123.743 107.167 123.306 107.198 122.872V122.212C107.236 122.12 107.236 122.017 107.198 121.924C107.142 121.803 106.947 121.924 107.04 122.017Z" fill="#4F3629"/>
<path d="M246.113 217.575C246.124 217.725 246.095 217.875 246.03 218.011C245.947 218.114 245.842 218.197 245.723 218.253C238.771 222.185 231.205 224.927 223.574 227.287C223.308 227.394 223.024 227.45 222.738 227.455C222.289 227.38 221.878 227.156 221.573 226.818C221.267 226.481 221.085 226.05 221.055 225.596C221.028 224.681 221.046 223.766 221.111 222.854C220.933 221.842 220.864 220.813 220.907 219.787C221.241 218.039 223.007 216.998 224.625 216.264C229.924 213.851 235.532 212.187 241.29 211.319C242.291 211.21 243.268 210.937 244.18 210.511C244.961 210.13 245.639 209.702 246.039 210.687C246.429 211.515 246.151 212.872 246.141 213.755C246.16 215.009 246.141 216.292 246.113 217.575Z" fill="#F4E5D0"/>
<path d="M224.625 224.173L244.097 217.193" stroke="#4F3629" stroke-width="0.25" stroke-linecap="round" stroke-linejoin="round"/>
<path d="M224.532 221.506L244.013 214.525" stroke="#4F3629" stroke-width="0.25" stroke-linecap="round" stroke-linejoin="round"/>
<path d="M224.625 224.173L244.097 217.193" stroke="#4F3629" stroke-width="0.25" stroke-linecap="round" stroke-linejoin="round"/>
<path d="M224.532 221.506L244.013 214.525" stroke="#4F3629" stroke-width="0.25" stroke-linecap="round" stroke-linejoin="round"/>
<path d="M246.262 209.637C246.413 209.722 246.541 209.843 246.634 209.99C246.959 210.52 246.346 211.124 245.807 211.431C242.684 213.197 239.217 214.033 235.796 215.065L224.838 218.383L222.979 218.95C222.694 219.004 222.434 219.147 222.236 219.359C222.086 219.624 222.027 219.931 222.068 220.232C222.068 220.753 221.864 228.913 222.254 228.895C216.482 228.402 211.668 226.45 206.277 224.341L195.421 220.093C192.428 218.922 189.519 217.574 186.573 216.319C186.216 216.209 185.907 215.979 185.699 215.669C185.59 215.371 185.567 215.049 185.634 214.739C186.387 208.103 184.565 205.259 191.09 202.22C197.299 199.298 203.784 197.006 210.45 195.379C212.978 194.775 214.614 196.615 216.956 197.795C223.024 200.909 229.409 203.362 236.001 205.11C239.631 206.089 243.092 207.615 246.262 209.637Z" fill="#665345"/>
<path d="M222.217 228.886C216.455 228.402 211.631 226.451 206.24 224.341L195.384 220.093C192.391 218.922 189.491 217.574 186.545 216.32C186.185 216.221 185.873 215.992 185.671 215.678C185.556 215.382 185.53 215.059 185.597 214.749C186.089 210.483 185.504 207.778 186.759 205.594L221.808 219.377L222.031 219.954C222.022 220.046 222.022 220.14 222.031 220.233C222.05 220.753 221.827 228.914 222.217 228.886Z" fill="#4F3629"/>
<path d="M246.039 217.667L246.374 217.453C246.82 217.156 247.21 216.719 247.805 216.924C248.4 217.128 248.511 217.519 248.13 217.946C247.349 218.599 246.483 219.143 245.556 219.563C243.839 220.604 242.052 221.565 240.193 222.445C236.506 224.239 232.668 225.704 228.723 226.822C227.14 227.21 225.586 227.714 224.076 228.328C223.414 228.555 222.737 228.736 222.05 228.867C222.05 228.867 221.288 227.984 221.613 227.492C221.938 226.999 223.249 226.869 223.853 226.562C224.838 226.171 225.847 225.842 226.874 225.577C229.169 224.898 231.437 224.127 233.668 223.281C236.586 222.166 239.458 220.92 242.256 219.563C243.52 218.969 244.84 218.392 246.039 217.667Z" fill="#665345"/>
<path d="M186.777 205.584L221.817 219.378" stroke="#4F3629" stroke-width="0.5" stroke-linecap="round" stroke-linejoin="round"/>
<path d="M221.817 219.378L186.777 205.584" stroke="#4F3629" stroke-width="0.5" stroke-linecap="round" stroke-linejoin="round"/>
<path d="M237.405 204.971C237.415 205.074 237.396 205.177 237.349 205.269C237.296 205.339 237.226 205.394 237.145 205.427C232.433 207.968 227.463 209.996 222.32 211.477C222.137 211.542 221.946 211.58 221.753 211.589C221.45 211.537 221.174 211.383 220.969 211.154C220.765 210.924 220.645 210.632 220.628 210.325C220.595 209.706 220.595 209.085 220.628 208.466C220.504 207.786 220.457 207.093 220.489 206.403C220.712 205.241 221.892 204.544 222.98 204.051C226.525 202.433 230.279 201.319 234.133 200.742C234.805 200.667 235.461 200.485 236.076 200.203C236.596 199.943 237.005 199.664 237.349 200.324C237.506 200.995 237.528 201.69 237.414 202.369C237.461 203.261 237.451 204.116 237.405 204.971Z" fill="#F4E5D0"/>
<path d="M223.063 209.32L235.778 204.478" stroke="#4F3629" stroke-width="0.25" stroke-linecap="round" stroke-linejoin="round"/>
<path d="M222.775 207.675L235.49 202.833" stroke="#4F3629" stroke-width="0.25" stroke-linecap="round" stroke-linejoin="round"/>
<path d="M237.526 199.663C237.629 199.72 237.718 199.8 237.786 199.896C238 200.258 237.591 200.658 237.228 200.825C235.09 201.879 232.843 202.696 230.527 203.26L223.194 205.473L221.92 205.854C221.73 205.889 221.556 205.987 221.428 206.132C221.327 206.31 221.288 206.516 221.316 206.718C221.316 207.071 221.177 212.527 221.437 212.518C217.58 212.183 214.355 210.873 210.739 209.469L203.48 206.625C201.472 205.844 199.53 204.943 197.559 204.097C197.318 204.027 197.11 203.872 196.974 203.66C196.898 203.468 196.882 203.257 196.927 203.056C197.429 198.613 196.212 196.708 200.58 194.691C204.752 192.726 209.111 191.187 213.592 190.099C215.284 189.69 216.381 190.927 217.924 191.717C221.984 193.801 226.256 195.443 230.666 196.615C233.095 197.276 235.408 198.304 237.526 199.663Z" fill="#C64607"/>
<path d="M221.437 212.546C217.58 212.221 214.345 210.911 210.739 209.507L203.48 206.663C201.473 205.873 199.53 204.981 197.56 204.135C197.32 204.066 197.113 203.914 196.974 203.707C196.903 203.511 196.887 203.299 196.928 203.094C197.253 200.231 196.863 198.447 197.708 196.959L221.168 206.18L221.326 206.57C221.316 206.632 221.316 206.694 221.326 206.756C221.326 207.109 221.177 212.565 221.437 212.546Z" fill="#B73E08"/>
<path d="M237.405 205.036L237.628 204.887C237.925 204.701 238.185 204.404 238.557 204.534C238.929 204.664 239.031 204.934 238.771 205.222C238.249 205.66 237.671 206.025 237.052 206.309C235.89 206.997 234.7 207.648 233.473 208.233C231.009 209.434 228.443 210.413 225.805 211.161C224.744 211.423 223.704 211.761 222.692 212.174C222.248 212.325 221.794 212.446 221.335 212.536C221.335 212.536 220.823 211.942 221.037 211.607C221.251 211.272 222.134 211.189 222.543 211.012C223.203 210.749 223.88 210.529 224.569 210.352C226.103 209.897 227.618 209.376 229.114 208.809C231.066 208.066 232.99 207.239 234.858 206.318C235.695 205.909 236.587 205.519 237.405 205.036Z" fill="#B73E08"/>
<path d="M197.689 196.847L221.409 206.318" stroke="#4F3629" stroke-width="0.5" stroke-linecap="round" stroke-linejoin="round"/>
<path d="M184.529 181.623C184.529 182.943 179.881 184.021 174.119 184.021C168.356 184.021 163.7 182.943 163.7 181.623C163.7 180.303 168.347 179.216 174.119 179.216C179.891 179.216 184.529 180.294 184.529 181.623Z" fill="#6D4E3C"/>
<path d="M181.935 171.186C182.052 172.616 182.024 174.055 181.852 175.48C181.734 176.222 181.553 176.952 181.313 177.664C181.313 177.664 181.313 177.664 181.313 177.729C181.313 177.794 181.183 178.054 181.108 178.212C181.064 178.338 181.008 178.459 180.941 178.575C180.928 178.615 180.909 178.652 180.885 178.686C180.831 178.81 180.766 178.928 180.69 179.04C180.503 179.372 180.282 179.683 180.03 179.969L179.779 180.229C179.475 180.526 179.127 180.774 178.747 180.964L178.552 181.047C178.306 181.163 178.047 181.247 177.781 181.298C176.271 181.536 174.745 181.657 173.217 181.661C171.873 181.779 170.525 181.477 169.36 180.796C168.195 179.867 167.329 178.616 166.869 177.199C166.041 175.552 165.342 173.843 164.778 172.087C164.238 170.116 164.238 168.036 164.778 166.064C164.778 165.999 164.824 165.934 164.852 165.879C164.882 165.823 164.916 165.77 164.954 165.721C164.991 165.679 165.025 165.636 165.057 165.59C165.193 165.433 165.361 165.306 165.549 165.219C166.419 164.894 167.344 164.739 168.272 164.763C169.983 164.661 171.656 164.522 173.366 164.512H174.481C175.85 164.511 177.218 164.579 178.58 164.717C179.51 164.819 180.736 164.791 181.368 165.544C181.447 165.627 181.513 165.721 181.564 165.823C182.502 167.366 181.852 169.466 181.935 171.186Z" fill="#E9A72C"/>
<path d="M166.125 166.743C166.177 167.599 166.324 168.447 166.562 169.271C167.133 171.026 167.829 172.737 168.644 174.392C169.112 175.808 169.981 177.057 171.144 177.989C172.308 178.674 173.657 178.976 175.002 178.854C176.533 178.845 178.061 178.724 179.575 178.491C180.211 178.364 180.805 178.079 181.303 177.664C181.302 177.686 181.302 177.707 181.303 177.729C181.238 177.896 181.173 178.054 181.099 178.212C181.054 178.338 180.998 178.459 180.932 178.575C180.919 178.615 180.9 178.652 180.876 178.686C180.822 178.81 180.756 178.928 180.681 179.04C180.494 179.372 180.273 179.683 180.021 179.969L179.779 180.229C179.475 180.526 179.127 180.774 178.747 180.964L178.552 181.047C178.306 181.163 178.047 181.247 177.781 181.298C176.271 181.536 174.745 181.657 173.217 181.661C171.873 181.779 170.525 181.477 169.36 180.796C168.195 179.867 167.329 178.616 166.869 177.199C166.041 175.552 165.342 173.843 164.778 172.087C164.238 170.116 164.238 168.036 164.778 166.064C164.778 165.999 164.824 165.934 164.852 165.879C164.882 165.823 164.916 165.77 164.954 165.721C164.991 165.679 165.025 165.636 165.057 165.59C165.209 165.452 165.374 165.327 165.549 165.219C166.419 164.894 167.344 164.739 168.272 164.763C169.983 164.661 171.656 164.522 173.366 164.512H174.481C175.85 164.511 177.218 164.579 178.58 164.717C179.51 164.819 180.736 164.791 181.368 165.544H181.322C179.324 166.505 177.159 167.073 174.946 167.217C173.856 167.326 172.756 167.247 171.693 166.985C170.763 166.678 169.834 166.734 168.821 166.501C168.254 166.362 166.962 165.758 166.395 165.999C166.116 166.102 166.125 166.427 166.125 166.743Z" fill="#E58D23"/>
<path d="M180.188 167.217C180.044 167.394 179.941 167.601 179.887 167.823C179.832 168.045 179.827 168.276 179.872 168.499C179.877 168.702 179.925 168.902 180.011 169.085C180.043 169.14 180.089 169.186 180.145 169.217C180.201 169.248 180.264 169.263 180.327 169.262C180.969 169.308 181.443 168.462 182.419 167.83C182.926 167.542 183.491 167.37 184.073 167.326C184.655 167.283 185.239 167.369 185.783 167.579C186.356 167.813 186.856 168.194 187.233 168.683C187.61 169.173 187.851 169.755 187.93 170.368C187.987 170.963 187.907 171.562 187.696 172.122C187.485 172.681 187.148 173.184 186.713 173.593C186.294 173.989 185.806 174.304 185.272 174.522C184.801 174.7 184.316 174.837 183.822 174.931L183.171 175.108C183.005 175.158 182.845 175.23 182.697 175.322C182.548 175.432 182.422 175.571 182.326 175.731C182.23 175.89 182.167 176.067 182.14 176.251C182.042 176.67 182.042 177.106 182.14 177.524C182.251 177.915 182.512 178.37 183.013 178.389C182.521 178.565 181.982 178.147 181.731 177.701C181.481 177.229 181.356 176.701 181.368 176.167C181.365 175.567 181.598 174.989 182.019 174.559C182.233 174.345 182.485 174.172 182.762 174.048C182.995 173.937 183.236 173.844 183.46 173.76C184.276 173.555 185.028 173.145 185.644 172.57C185.901 172.32 186.099 172.014 186.221 171.676C186.343 171.338 186.388 170.976 186.35 170.619C186.307 170.278 186.177 169.954 185.971 169.679C185.766 169.404 185.493 169.186 185.179 169.048C184.857 168.883 184.5 168.8 184.138 168.806C183.754 168.804 183.372 168.873 183.013 169.011C182.622 169.227 182.244 169.466 181.88 169.726C181.636 169.908 181.357 170.036 181.061 170.102C180.764 170.168 180.457 170.17 180.16 170.107C179.989 170.056 179.834 169.963 179.709 169.837C179.584 169.71 179.493 169.554 179.444 169.382C179.38 169.11 179.38 168.827 179.444 168.555C179.453 168.289 179.525 168.029 179.654 167.796C179.783 167.563 179.966 167.365 180.188 167.217Z" fill="#E9A72C"/>
<path d="M173.431 159.279C173.056 159.864 172.745 160.487 172.501 161.138C172.148 162.486 173.049 163.852 174.09 164.772C174.416 163.899 174.09 162.913 174.295 161.984C174.541 161.371 174.833 160.778 175.169 160.209C175.36 159.74 175.479 159.245 175.522 158.74C175.692 157.67 175.577 156.573 175.187 155.561C174.88 154.836 172.185 152.541 172.752 154.214C172.984 154.911 173.57 155.468 173.784 156.184C174.068 157.223 173.941 158.331 173.431 159.279Z" fill="#FFD29C"/>
<path d="M170.029 160.181C169.735 160.628 169.489 161.104 169.295 161.603C169.225 162.134 169.301 162.675 169.516 163.166C169.731 163.658 170.075 164.081 170.513 164.391C170.754 163.731 170.513 162.978 170.661 162.291C170.854 161.827 171.078 161.377 171.33 160.943C171.476 160.587 171.567 160.211 171.6 159.827C171.732 159.008 171.646 158.168 171.349 157.392C171.107 156.844 169.063 155.087 169.49 156.37C169.667 156.9 170.113 157.299 170.28 157.876C170.487 158.648 170.397 159.471 170.029 160.181Z" fill="#FFD29C"/>
<path d="M165.27 165.534C166.554 165.911 167.861 166.206 169.183 166.417C170.495 166.632 171.822 166.75 173.151 166.77C174.479 166.817 175.809 166.733 177.12 166.519L178.105 166.361L179.035 166.11C179.695 165.999 180.299 165.711 180.95 165.534C179.749 166.152 178.47 166.602 177.148 166.873C175.818 167.142 174.462 167.263 173.105 167.235C171.752 167.199 170.405 167.04 169.08 166.761C167.771 166.487 166.494 166.075 165.27 165.534Z" fill="#4F3629"/>
</svg>
