<svg width="293" height="284" viewBox="0 0 293 284" fill="none" xmlns="http://www.w3.org/2000/svg">
<path opacity="0.15" d="M76.5753 0.337238C70.2629 1.38431 64.2896 4.66514 58.6254 7.85622C41.2141 17.6788 17.64 32.6968 15.4361 54.805C13.9603 69.5737 23.9523 83.425 23.693 98.2536C23.354 117.939 5.55375 133.036 1.00645 152.193C-3.71036 172.047 8.63513 194.485 27.9312 201.136C43.5176 206.501 60.8392 202.273 76.9841 205.803C97.0281 210.191 112.445 225.827 126.117 241.144C139.789 256.461 153.889 272.836 173.235 279.677C189.709 285.5 207.878 283.566 225.02 280.135C236.987 277.742 249.303 274.401 258.467 266.344C274.043 252.622 276.237 229.716 280.775 209.503C286.947 181.93 299.273 153.001 289.141 126.624C285.053 115.974 277.344 106.072 277.823 94.7135C278.052 89.2587 280.176 84.0832 282.101 78.9775C288.014 63.2913 294.067 40.5748 283.547 25.3573C274.572 12.4534 255.216 5.41305 240.427 3.30893C224.392 1.01534 207.958 3.30893 192.461 7.97589C177.992 12.3437 164.001 18.8256 148.973 20.4111C135.097 21.8567 121.109 19.0501 108.865 12.3636C100.04 7.42742 91.6631 0.426987 81.5912 0.0181298C79.9127 -0.0461888 78.2321 0.0607327 76.5753 0.337238Z" fill="#EAFF44"/>
<path d="M276.586 4.68506H128.022V66.1832H276.586V4.68506Z" stroke="#564033" stroke-miterlimit="10"/>
<path d="M276.586 4.68506H128.022V66.1832H276.586V4.68506Z" fill="#EBEFFF" stroke="#564033" stroke-miterlimit="10"/>
<path opacity="0.35" d="M276.546 52.8805V66.1833H127.962V57.2084C132.339 52.2223 135.81 46.6778 140.227 41.6818C142.305 39.1385 144.732 36.9025 147.437 35.0404C155.415 29.9047 168.02 30.4831 175.269 36.3367C179.328 39.6176 182.25 44.4939 187.874 45.4114C189.727 45.7099 191.626 45.5279 193.389 44.8828C195.227 44.2131 196.919 43.1976 198.375 41.8912C199.648 40.7961 200.783 39.5504 201.755 38.1816C201.925 37.9323 202.084 37.673 202.244 37.4237C204.238 34.1129 205.754 30.4432 208.227 27.3818C209.164 26.1886 210.265 25.1344 211.498 24.2505C216.484 20.7104 224.372 20.3115 229.837 23.343C233.666 25.4671 236.119 28.8975 239.65 31.3208C242.885 33.5108 246.642 34.8077 250.539 35.0802C252.922 35.2697 255.356 35.0802 257.699 35.519C267.123 37.2542 270.104 46.8274 276.546 52.8805Z" fill="#73733F"/>
<g opacity="0.5">
<path d="M231.044 66.1832H221.979L193.449 44.8927L140.178 5.14378L140.507 4.68506H148.634L198.485 41.8811L231.044 66.1832Z" fill="white"/>
<path d="M256.113 63.2115L253.889 66.1832H239.22L201.755 38.1814L156.93 4.68506H177.832L208.207 27.3816L256.113 63.2115Z" fill="white"/>
</g>
<path d="M236.03 4.68506H168.598V66.1832H236.03V4.68506Z" stroke="#564033" stroke-miterlimit="10"/>
<path d="M282.021 60.4492H119.306V68.4269H282.021V60.4492Z" fill="#6D4E3C"/>
<path d="M282.021 64.3584H119.306V68.427H282.021V64.3584Z" fill="#4F3629"/>
<path d="M152.603 87.2246C151.825 87.454 148.983 93.7863 148.205 94.8234C146.3 97.3762 144.146 99.7097 142.052 102.093C140.084 104.101 138.226 106.215 136.488 108.425C134.832 110.779 133.975 113.741 132.499 116.253C132.229 116.822 131.799 117.3 131.262 117.63C131.128 117.706 130.979 117.755 130.825 117.773C130.672 117.792 130.516 117.78 130.366 117.739C130.217 117.697 130.078 117.626 129.956 117.53C129.834 117.435 129.733 117.316 129.657 117.181C129.567 116.824 129.588 116.449 129.717 116.104C131.452 109.841 132.23 102.691 136.588 97.7153C140.814 92.7597 146.372 89.1191 152.603 87.2246Z" fill="#73733F"/>
<path d="M128.759 115.465C128.769 114.246 128.964 113.036 129.338 111.876C129.748 110.751 130.315 109.69 131.023 108.724C132.353 106.988 133.775 105.324 135.281 103.738L144.086 94.2847L136.438 104.616C135.17 106.309 133.995 108.07 132.918 109.891C132.436 110.737 132.076 111.647 131.851 112.593C131.676 113.514 131.642 114.455 131.751 115.386C131.752 115.764 131.611 116.129 131.355 116.408C131.099 116.688 130.747 116.86 130.37 116.891C129.993 116.923 129.618 116.811 129.319 116.578C129.021 116.345 128.821 116.009 128.759 115.635V115.465Z" fill="#59572E"/>
<path d="M13.5018 78.8277C19.7396 74.7562 26.8229 72.1594 34.2142 71.2345C41.6055 70.3095 49.1103 71.0807 56.159 73.4896C63.2077 75.8984 69.6149 79.8815 74.8942 85.1366C80.1735 90.3916 84.1861 96.7803 86.6274 103.818C90.5664 115.186 90.1975 127.532 89.7886 139.548" stroke="#73733F" stroke-width="3" stroke-linecap="round" stroke-linejoin="round"/>
<path d="M26.1863 108.834C25.5481 107.368 28.3602 100.627 28.7192 98.8618C29.4429 95.1617 29.9491 91.4224 30.235 87.6631C30.4643 84.841 31.9601 69.4739 27.8915 71.0694C24.3514 72.4556 22.9553 85.8781 22.7559 89.0193C22.3156 95.8025 23.4913 102.593 26.1863 108.834Z" fill="#73733F"/>
<path d="M58.0272 95.7204C57.8899 99.4989 58.1405 103.281 58.7751 107.009C59.1142 109.003 64.7584 124.31 66.1844 120.481C67.2778 117.025 67.8492 113.426 67.8797 109.801C68.2919 101.662 68.2752 93.5067 67.8298 85.3693C67.5007 79.2963 66.0049 73.4027 61.7867 80.8818C59.402 85.4704 58.115 90.5499 58.0272 95.7204Z" fill="#73733F"/>
<path d="M43.6671 101.375C47.9452 96.897 60.55 73.303 51.585 71.8271C40.1171 69.9424 41.3237 94.4738 41.932 100.896C41.932 101.375 42.1015 101.893 42.5403 102.093C42.7696 102.172 43.1984 101.913 43.6671 101.375Z" fill="#73733F"/>
<path d="M48.1848 54.6852C48.3775 54.6378 48.5787 54.6356 48.7725 54.6788C48.9662 54.7221 49.1473 54.8096 49.3016 54.9345C49.4836 55.1996 49.5551 55.5251 49.5011 55.842C49.2618 60.5289 38.0531 76.235 33.4659 69.2844C29.0981 62.7327 43.3782 55.2038 48.1848 54.6852Z" fill="#73733F"/>
<path d="M73.2444 105.613C74.1917 111.522 75.9081 117.282 78.3502 122.745C78.4216 123.01 78.547 123.258 78.7186 123.473C78.8902 123.687 79.1043 123.864 79.3474 123.992C80.3446 124.311 81.0526 123.064 81.3418 122.057C83.1157 115.262 83.706 108.211 83.0869 101.215C82.7878 97.8946 81.8105 88.9097 76.5951 90.0665C71.3796 91.2232 72.7458 101.863 73.2444 105.613Z" fill="#73733F"/>
<path d="M70.1734 77.3719C72.5268 75.6467 75.1594 73.8418 78.0613 74.0612C79.7249 74.2821 81.3096 74.9051 82.6784 75.8761C87.0881 78.65 90.7596 82.4516 93.3785 86.9551C88.2329 85.7784 83.4064 83.1557 78.0912 83.046C76.6852 83.046 75.2791 83.1557 73.883 82.9962C72.4869 82.8366 69.0066 82.0787 68.1889 80.8721C67.1319 79.3264 68.6177 78.5187 70.1734 77.3719Z" fill="#73733F"/>
<path d="M55.4043 66.5324C57.0857 64.9659 59.28 64.0655 61.5771 63.9995C63.4806 64.0914 65.3416 64.5949 67.0318 65.4754C68.8828 66.3417 70.6575 67.3625 72.337 68.5269C71.9048 69.1404 71.3451 69.6532 70.6962 70.0301C70.0473 70.4071 69.3246 70.6392 68.5775 70.7108C67.1011 70.8387 65.6164 70.8387 64.1399 70.7108C59.4431 70.5911 55.7235 72.2165 51.4654 73.7921C51.1163 71.4088 53.6991 68.0681 55.4043 66.5324Z" fill="#73733F"/>
<path d="M17.1813 69.3644C15.9496 67.4246 15.4674 65.1023 15.8251 62.8326C16.2602 60.9799 17.0939 59.2444 18.2682 57.7468C19.4605 56.0819 20.7951 54.5237 22.2571 53.0898C22.7766 53.6278 23.1739 54.2716 23.4217 54.9773C23.6695 55.6829 23.7621 56.4337 23.6931 57.1784C23.5359 58.6642 23.2591 60.1349 22.8654 61.5761C21.8682 66.1633 22.8056 70.1222 23.5734 74.5997C21.1901 74.4801 18.3779 71.3289 17.1813 69.3644Z" fill="#73733F"/>
<path d="M42.999 60.6387C41.1801 61.6892 39.627 63.1439 38.4599 64.8903C37.2927 66.6367 36.5427 68.6281 36.2678 70.7105" stroke="#59572E" stroke-width="0.75" stroke-linecap="round" stroke-linejoin="round"/>
<path d="M20.0634 60.6387C20.0634 60.6387 16.3239 65.1261 21.9282 72.9842" stroke="#59572E" stroke-width="0.75" stroke-linecap="round" stroke-linejoin="round"/>
<path d="M65.4362 67.6194C65.4362 67.6194 59.4529 64.5081 53.9683 72.1069" stroke="#59572E" stroke-width="0.75" stroke-linecap="round" stroke-linejoin="round"/>
<path d="M86.2482 82.5772C86.2482 82.5772 81.2621 75.9757 71.1703 81.3307" stroke="#59572E" stroke-width="0.75" stroke-linecap="round" stroke-linejoin="round"/>
<path d="M26.5454 88.5604C26.5454 88.5604 26.0468 74.9783 28.0412 72.605" stroke="#59572E" stroke-width="0.75" stroke-linecap="round" stroke-linejoin="round"/>
<path d="M45.243 92.5493C44.9558 85.1473 47.3455 77.8897 51.9742 72.1064" stroke="#59572E" stroke-width="0.75" stroke-linecap="round" stroke-linejoin="round"/>
<path d="M64.938 111.496C61.6329 100.608 61.8949 88.9481 65.6859 78.2192" stroke="#59572E" stroke-width="0.75" stroke-linecap="round" stroke-linejoin="round"/>
<path d="M79.2677 117.729C79.2677 117.729 75.7774 100.776 79.7663 92.4297" stroke="#59572E" stroke-width="0.75" stroke-linecap="round" stroke-linejoin="round"/>
<path d="M205.764 179.118H61.946V185.849H205.764V179.118Z" fill="#4F3629"/>
<path d="M218.299 156.391H49.551V166.353H218.299V156.391Z" fill="#6D4E3C"/>
<path d="M218.299 161.726H49.551V166.353H218.299V161.726Z" fill="#4F3629"/>
<path d="M63.6815 165.516H57.4888V224.391H63.6815V165.516Z" fill="#6D4E3C"/>
<path d="M63.6815 165.516H57.4888V171.369H63.6815V165.516Z" fill="#4F3629"/>
<path d="M211.398 165.516H205.206V224.391H211.398V165.516Z" fill="#6D4E3C"/>
<path d="M211.398 165.516H205.206V171.21H211.398V165.516Z" fill="#4F3629"/>
<path d="M120.064 104.077C123.371 108.535 125.912 113.513 127.583 118.806C128.171 120.661 128.689 122.646 130.056 124.032C129.378 123.344 130.375 117.53 130.405 116.383C130.581 113.639 130.558 110.886 130.335 108.146C129.547 101.475 123.713 94.9031 119.286 90.1065C115.536 86.0478 110.101 87.1148 112.156 93.3175C113.562 97.5357 117.481 100.627 120.064 104.077Z" fill="#73733F"/>
<path d="M115.666 52.4114C114.858 51.4142 113.671 50.2874 112.445 50.7461C112.063 50.9366 111.736 51.2217 111.495 51.5743C111.254 51.9268 111.107 52.3352 111.069 52.7604C110.67 55.074 111.687 57.3676 112.684 59.5016C117.251 69.2676 121.815 79.037 126.376 88.8097C126.575 89.2285 126.825 89.6972 127.283 89.8069C128.041 89.9964 128.57 89.069 128.789 88.3211C130.784 81.3406 130.624 76.4143 127.323 70.1419C124.019 63.8692 120.115 57.9313 115.666 52.4114Z" fill="#73733F"/>
<path d="M70.582 26.833C78.2307 27.8302 86.2782 41.7912 87.7939 45.1019C89.9978 49.8886 90.9551 55.1539 91.6631 60.3693C92.79 68.6262 93.3684 76.933 93.9368 85.2398C95.303 104.835 96.6492 124.68 93.129 144.006" stroke="#73733F" stroke-width="3" stroke-linecap="round" stroke-linejoin="round"/>
<path d="M63.7112 25.5566C62.6582 26.1218 61.6883 26.8299 60.8292 27.6607C58.7997 29.5257 57.0349 31.6596 55.5839 34.003C55.3391 34.3324 55.1875 34.7216 55.1451 35.1299C55.1451 36.2966 56.6808 36.7653 57.8376 36.5858C60.3705 36.1769 62.2154 34.4418 64.1998 32.9659C66.0247 31.5997 69.5449 30.5626 70.9809 29.0568C75.3686 24.4397 66.4934 24.1306 63.7112 25.5566Z" fill="#73733F"/>
<path d="M73.5041 43.6063L73.4143 48.024C73.3831 48.2362 73.3953 48.4526 73.4502 48.66C73.505 48.8674 73.6014 49.0615 73.7334 49.2306C73.9327 49.3743 74.1755 49.4449 74.4208 49.4304C74.666 49.4158 74.8988 49.3171 75.0797 49.1508C75.4299 48.8071 75.6902 48.3824 75.8376 47.9143C77.1639 44.7432 83.5759 34.9505 79.3876 32.5073C73.6337 29.2066 73.5639 40.7044 73.5041 43.6063Z" fill="#73733F"/>
<path d="M76.6549 58.4151C75.4981 60.7608 74.8201 63.3135 74.6605 65.9241C74.6605 67.1706 75.0096 68.6565 76.1962 69.0354C77.6023 69.4841 78.8389 68.0382 79.5668 66.7418C82.5441 61.0797 85.094 55.2031 87.1955 49.1609C87.6143 48.0341 88.8509 44.8031 87.3351 44.0054C85.8194 43.2076 83.9546 46.4385 83.2166 47.3759C80.5888 50.7753 78.3853 54.4823 76.6549 58.4151Z" fill="#73733F"/>
<path d="M78.889 73.4031C78.644 73.9271 78.5212 74.5 78.53 75.0784C78.5405 75.3737 78.642 75.6587 78.8205 75.8942C78.9989 76.1298 79.2457 76.3046 79.5272 76.3947C80.315 76.5842 81.0031 75.8762 81.5216 75.228L89.0705 65.4054C91.2644 62.5833 92.5907 57.1684 87.3753 60.4194C83.4662 62.9523 80.4945 69.2247 78.889 73.4031Z" fill="#73733F"/>
<path d="M103.221 49.0112C103.82 50.1922 104.16 51.4876 104.218 52.8106C103.976 52.7897 103.742 52.7175 103.531 52.5989C103.319 52.4802 103.135 52.3178 102.992 52.1225C100.289 49.2405 98.1251 45.6207 94.5352 43.9852C91.3441 42.5193 86.4877 42.4595 84.563 38.9992C84.2259 38.448 84.0158 37.8285 83.9481 37.1859C83.8804 36.5434 83.9568 35.8938 84.1717 35.2844C84.3866 34.675 84.7346 34.1212 85.1904 33.6633C85.6463 33.2053 86.1984 32.8547 86.8068 32.6369C93.9368 29.8846 101.037 44.055 103.221 49.0112Z" fill="#73733F"/>
<path d="M100.638 73.5127C102.334 78.0244 102.949 82.8708 102.433 87.6631C102.419 88.2981 102.244 88.9192 101.925 89.4681C101.755 89.7371 101.495 89.9365 101.191 90.0298C100.887 90.1232 100.56 90.1043 100.269 89.9767C99.903 89.7181 99.6496 89.3291 99.5611 88.8897C99.0924 87.2642 99.2021 85.5291 98.8431 83.9036C98.2932 81.9392 97.4349 80.0744 96.3002 78.3791C94.8842 75.9559 89.7087 68.4069 93.179 65.8641C96.39 63.5206 99.7307 71.2191 100.638 73.5127Z" fill="#73733F"/>
<path d="M103.032 116.443C102.603 116.762 102.034 116.194 101.845 115.715C100.778 113.441 99.7009 111.178 98.6338 108.914C97.3275 106.152 94.5453 102.262 94.3957 99.1611C94.2461 95.7606 96.6494 94.6337 98.933 96.9074C103.74 101.624 103.44 110.32 103.032 116.443Z" fill="#73733F"/>
<path d="M94.9739 98.1636C96.4882 99.3097 97.7548 100.751 98.6974 102.399C99.64 104.048 100.239 105.87 100.459 107.757" stroke="#59572E" stroke-width="0.75" stroke-linecap="round" stroke-linejoin="round"/>
<path d="M92.7301 67.8687C92.7301 67.8687 98.3444 73.483 99.4613 79.0873" stroke="#59572E" stroke-width="0.75" stroke-linecap="round" stroke-linejoin="round"/>
<path d="M84.3833 36.9552C84.3833 36.9552 89.868 33.7143 97.7161 42.6892" stroke="#59572E" stroke-width="0.75" stroke-linecap="round" stroke-linejoin="round"/>
<path d="M70.7515 26.1952C70.7515 26.1952 65.3466 24.9487 59.8619 31.8494" stroke="#59572E" stroke-width="0.75" stroke-linecap="round" stroke-linejoin="round"/>
<path d="M79.477 33.7539C79.477 33.7539 76.984 34.8409 75.2389 44.5637" stroke="#59572E" stroke-width="0.75" stroke-linecap="round" stroke-linejoin="round"/>
<path d="M86.5374 46.0591C86.2881 46.3084 79.5569 56.5298 78.2306 64.8366" stroke="#59572E" stroke-width="0.75" stroke-linecap="round" stroke-linejoin="round"/>
<path d="M90.9451 59.9307C91.0249 60.18 84.1341 65.5849 81.4716 72.9842" stroke="#59572E" stroke-width="0.75" stroke-linecap="round" stroke-linejoin="round"/>
<path d="M148.315 14.2785C146.32 22.7548 144.456 31.291 142.222 39.7174C140.477 46.3289 139.469 55.5232 133.616 59.9209C133.36 60.1464 133.038 60.2829 132.698 60.3099C131.941 60.3099 131.641 59.3126 131.552 58.5947C129.059 39.2986 135.391 21.2191 148.694 6.88916C149.472 9.29244 148.903 11.8752 148.315 14.2785Z" fill="#73733F"/>
<path d="M129.009 54.7549C130.809 52.1126 132.474 49.38 133.995 46.5678C135.517 43.7357 136.947 40.8471 138.283 37.902C139.589 34.9103 140.846 31.9187 141.943 28.9271C143.04 25.9354 144.067 22.8042 145.004 19.6929C144.306 22.864 143.558 26.0252 142.651 29.1564C141.743 32.2877 140.756 35.389 139.659 38.4704C138.562 41.5518 137.326 44.5733 135.99 47.565C134.664 50.5915 133.176 53.5442 131.532 56.4103C131.332 56.7541 131.004 57.0045 130.62 57.1064C130.236 57.2083 129.827 57.1534 129.483 56.9537C129.139 56.7541 128.888 56.426 128.787 56.0417C128.685 55.6573 128.74 55.2483 128.939 54.9045L128.959 54.7549H129.009Z" fill="#59572E"/>
<path d="M134.065 71.2986C135.96 69.1845 138.054 67.3097 140.138 65.3153L157.31 49.6391C158.187 48.8414 159.384 47.9937 160.441 48.5322C160.14 50.8069 159.376 52.9958 158.197 54.9642C154.378 62.4433 150.549 69.9224 146.231 77.1223C143.239 82.1084 139.849 87.0944 135.192 90.5548C134.501 91.1653 133.62 91.5177 132.699 91.552C130.824 91.4323 130.056 89.1088 129.837 87.2341C128.959 80.1937 129.258 76.6935 134.065 71.2986Z" fill="#73733F"/>
<path d="M129.956 85.7387C132.12 83.6246 134.264 81.311 136.348 79.0274C138.433 76.7438 140.487 74.3804 142.521 72.0469C146.59 67.3201 150.579 62.5169 154.488 57.6372C150.991 62.8028 147.401 67.9151 143.718 72.9743C141.876 75.5073 139.998 78.0136 138.084 80.4933C136.159 82.9764 134.244 85.4196 132.1 87.8428C131.836 88.143 131.463 88.3258 131.064 88.351C130.664 88.3763 130.271 88.2419 129.971 87.9774C129.671 87.7129 129.488 87.34 129.463 86.9408C129.438 86.5415 129.572 86.1485 129.837 85.8484L129.916 85.7686L129.956 85.7387Z" fill="#59572E"/>
<path d="M122.307 52.2123C123.145 55.2039 124.032 58.8139 126.944 59.9706C127.297 60.1467 127.703 60.1823 128.081 60.0703C128.65 59.851 128.869 59.1729 129.009 58.5845C130.096 53.8491 130.684 49.0128 130.764 44.1548C130.905 41.8811 130.618 39.601 129.916 37.4336C128.56 33.8038 125.349 31.2409 122.277 28.8775C120.572 27.5612 116.484 22.8942 114.3 24.2106C111.687 25.7064 113.691 30.5628 114.389 32.4475C116.833 39.069 120.592 45.3116 122.307 52.2123Z" fill="#73733F"/>
<path d="M128.959 51.6838C128.253 49.5053 127.435 47.365 126.506 45.2718C125.569 43.1577 124.571 41.0668 123.514 38.9993C122.407 36.955 121.271 34.9207 120.024 32.9462C118.778 30.9717 117.471 29.0172 116.115 27.1025C117.661 28.8676 119.196 30.6526 120.632 32.5174C122.068 34.3822 123.464 36.2869 124.791 38.2314C126.117 40.176 127.364 42.2203 128.55 44.2147C129.755 46.295 130.847 48.4388 131.821 50.6368C131.98 51.0017 131.987 51.4148 131.841 51.7851C131.695 52.1554 131.408 52.4526 131.043 52.6112C130.863 52.6898 130.668 52.732 130.471 52.7355C130.274 52.7389 130.078 52.7035 129.895 52.6313C129.525 52.4854 129.227 52.1984 129.069 51.8334C129.065 51.7836 129.065 51.7336 129.069 51.6838H128.959Z" fill="#59572E"/>
<path d="M128.171 85.6685C127.467 83.4926 126.648 81.3556 125.718 79.2664C124.781 77.139 123.784 75.0482 122.726 72.9939C121.62 70.9397 120.483 68.9053 119.236 66.9309C117.99 64.9564 116.683 63.0118 115.327 61.0972C116.873 62.8523 118.409 64.6373 119.845 66.5021C121.281 68.3668 122.677 70.2715 124.003 72.2261C125.329 74.1806 126.576 76.2149 127.762 78.2093C128.942 80.3042 130.007 82.4613 130.953 84.6713C131.112 85.0363 131.119 85.4493 130.974 85.8196C130.828 86.1899 130.541 86.4871 130.176 86.6458C129.811 86.8045 129.398 86.8116 129.027 86.6658C128.657 86.5199 128.36 86.2329 128.201 85.8679C128.197 85.8182 128.197 85.7681 128.201 85.7184L128.171 85.6685Z" fill="#59572E"/>
<path d="M128.67 117.121C127.966 114.945 127.147 112.808 126.217 110.719C125.279 108.598 124.282 106.507 123.225 104.446C122.118 102.392 120.981 100.357 119.735 98.383C118.488 96.4085 117.182 94.464 115.826 92.5493C117.371 94.3044 118.907 96.0894 120.343 97.9542C121.779 99.819 123.175 101.724 124.501 103.678C125.828 105.633 127.074 107.667 128.261 109.711C129.466 111.788 130.558 113.929 131.532 116.123C131.691 116.488 131.698 116.901 131.552 117.272C131.406 117.642 131.119 117.939 130.754 118.098C130.389 118.257 129.976 118.264 129.606 118.118C129.235 117.972 128.938 117.685 128.78 117.32C128.775 117.27 128.775 117.22 128.78 117.17L128.67 117.121Z" fill="#59572E"/>
<path d="M162.645 134.532C162.984 119.743 157.729 107.328 152.842 93.7358C156.5 97.5132 159.47 101.9 161.618 106.7C165.605 115.551 167.374 125.241 166.773 134.931C166.783 135.086 166.761 135.242 166.71 135.39C166.659 135.537 166.578 135.672 166.474 135.788C166.287 135.92 166.064 135.989 165.836 135.988C164.649 135.998 163.692 135.08 162.645 134.532Z" fill="#73733F"/>
<path d="M165.766 83.9731C171.061 92.1104 170.892 102.511 170.533 112.204C170.313 117.995 170.097 123.792 169.884 129.596C169.795 132.158 169.067 135.479 166.514 135.788C166.596 130.81 166.182 125.836 165.277 120.94C164.569 117.101 161.957 111.965 162.864 108.116C163.692 104.566 165.935 101.714 166.504 97.8843C167.042 94.3142 167.85 87.1941 165.766 83.9731Z" fill="#68673A"/>
<path d="M176.187 103.509C177.583 95.2224 179.478 86.6763 184.673 80.0747C178.8 95.8805 177.952 113.112 178.69 129.935C178.78 132.059 177.922 137.065 174.522 135.39C172.238 134.263 172.926 129.955 173.076 128.011C173.744 119.824 174.831 111.597 176.187 103.509Z" fill="#68673A"/>
<path d="M170.672 80.563C170.672 82.1386 172.208 84.492 172.667 86.0875C173.225 88.1665 173.655 90.2779 173.953 92.4099C174.522 96.3489 174.163 100.258 174.163 104.247C174.163 113.674 173.787 123.087 173.036 132.488C173.036 134.338 172.592 136.161 171.739 137.803C171.518 138.197 171.194 138.525 170.802 138.75C170.269 138.923 169.689 138.881 169.187 138.633C168.684 138.386 168.298 137.952 168.109 137.424C167.778 136.347 167.741 135.2 168 134.103C170.503 116.582 171.041 98.2835 170.672 80.563Z" fill="#73733F"/>
<path d="M186.927 89.2485C184.186 103.898 182.897 118.782 183.077 133.684C183.077 135.41 182.519 137.763 180.804 137.673C180.337 137.62 179.9 137.417 179.557 137.095C177.902 135.659 177.892 133.106 178.012 130.952C178.457 123.027 178.906 115.103 179.358 107.178C179.757 100.138 185.6 95.87 186.927 89.2485Z" fill="#73733F"/>
<path d="M130.235 136.706V49.041" stroke="#59572E" stroke-width="2" stroke-linecap="round" stroke-linejoin="round"/>
<path d="M122.238 129.735C121.56 130.112 120.981 130.643 120.548 131.286C120.114 131.929 119.839 132.666 119.745 133.435C119.605 134.369 119.575 135.316 119.655 136.257C119.914 141.353 120.154 146.449 120.413 151.545C120.662 156.461 121.41 156.65 126.217 156.65H140.776C143.768 156.65 144.177 155.653 144.446 152.592C144.984 146.209 145.443 140.485 143.937 134.073C143.568 132.448 143.01 130.683 141.584 129.825C140.898 129.468 140.156 129.232 139.39 129.127C135.164 128.166 130.8 127.974 126.506 128.559C125.026 128.702 123.582 129.1 122.238 129.735Z" fill="#C64607"/>
<path d="M144.535 151.585L144.446 152.582C144.176 155.703 143.767 156.64 140.776 156.64H126.216C121.38 156.64 120.662 156.461 120.413 151.545C120.153 146.449 119.914 141.353 119.665 136.257C119.576 135.314 119.603 134.363 119.745 133.425C119.844 132.657 120.121 131.923 120.554 131.281C120.987 130.639 121.563 130.106 122.238 129.726C122.657 129.499 123.098 129.316 123.554 129.177C123.514 129.841 123.514 130.507 123.554 131.172C123.813 136.267 124.053 141.363 124.312 146.459C124.561 151.375 125.309 151.565 130.106 151.565L144.535 151.585Z" fill="#B73B04"/>
<path d="M184.803 137.175C184.339 134.627 183.575 132.144 182.529 129.775H157.798C156.745 132.142 155.978 134.626 155.515 137.175C155.215 138.87 155.086 140.775 156.093 142.161C156.971 143.397 158.516 143.966 159.523 145.093C161.777 147.626 160.441 151.564 160.88 154.925C160.896 155.273 161.003 155.611 161.19 155.905C161.377 156.199 161.638 156.439 161.947 156.6H178.351C178.658 156.437 178.917 156.197 179.102 155.903C179.287 155.609 179.393 155.272 179.408 154.925C179.847 151.564 178.51 147.626 180.764 145.093C181.761 143.966 183.317 143.397 184.194 142.161C185.202 140.775 185.072 138.87 184.803 137.175Z" fill="#EFA135"/>
<path d="M179.507 153.25C179.513 153.816 179.483 154.382 179.418 154.945C179.4 155.292 179.292 155.627 179.105 155.919C178.918 156.211 178.658 156.45 178.351 156.61H161.947C161.639 156.45 161.379 156.211 161.192 155.919C161.005 155.627 160.897 155.292 160.88 154.945C160.451 151.585 161.777 147.636 159.523 145.103C158.526 143.976 156.97 143.407 156.093 142.181C155.096 140.775 155.215 138.88 155.524 137.195C155.981 134.646 156.744 132.161 157.798 129.795H159.643C159.221 131.118 158.887 132.467 158.646 133.834C158.347 135.529 158.217 137.424 159.224 138.82C160.102 140.047 161.647 140.625 162.655 141.752C164.908 144.275 163.572 148.224 164.011 151.585C164.026 151.932 164.131 152.269 164.317 152.563C164.502 152.857 164.761 153.097 165.068 153.26L179.507 153.25Z" fill="#E58D23"/>
<path d="M104.667 130.862C104.245 130.655 103.8 130.501 103.34 130.404C101.256 129.925 98.7034 130.264 96.5594 130.244C94.1861 130.244 91.8027 130.244 89.4293 130.244C87.056 130.244 84.6527 130.244 82.2694 130.244C80.442 130.174 78.6143 130.372 76.8445 130.832C74.0523 131.75 74.9099 134.542 75.4085 137.534C76.0103 140.821 76.9839 144.029 78.3104 147.097C80.3048 151.973 81.2422 157.159 87.2853 156.85C89.584 156.73 91.8874 156.73 94.1861 156.85C100.249 157.159 101.167 151.973 103.161 147.097C104.488 144.029 105.461 140.821 106.063 137.534C106.571 134.712 107.18 132.099 104.667 130.862Z" fill="#EFA135"/>
<path d="M101.146 152.283C99.85 155.045 98.075 157.079 94.1659 156.88C91.8823 156.76 89.489 156.77 87.2652 156.88C81.2021 157.199 80.2847 152.013 78.2903 147.127C76.9606 144.048 75.9934 140.826 75.4083 137.524C74.9197 134.532 74.0621 131.75 76.8443 130.822C77.6334 130.584 78.4458 130.43 79.2676 130.364C79.3673 131.251 79.5667 132.219 79.7263 133.206C80.3361 136.492 81.3128 139.7 82.6381 142.769C84.6325 147.645 85.5699 152.831 91.613 152.522C93.915 152.402 96.2217 152.402 98.5237 152.522C99.4052 152.595 100.293 152.514 101.146 152.283Z" fill="#E58D23"/>
<path d="M212.017 138.352C215.447 138.88 217.182 135.121 215.776 131.99C215.196 130.672 214.252 129.547 213.054 128.749C210.281 126.904 206.662 126.854 203.451 126.754C201.597 126.722 199.754 126.478 197.956 126.026C196.15 125.449 194.488 124.494 193.079 123.224L194.874 130.953C194.907 131.145 194.986 131.326 195.104 131.481C195.305 131.641 195.555 131.729 195.812 131.73C197.488 132.042 199.1 132.635 200.579 133.485C204.208 135.31 207.938 137.734 212.017 138.352Z" fill="#F2C19F"/>
<path d="M241.534 110.529C241.021 112.47 240.381 114.376 239.62 116.233C238.443 119.175 236.867 121.918 235.631 124.809C234.175 128.19 233.068 131.79 231.792 135.21C231.172 137.211 230.243 139.102 229.039 140.815C225.878 144.804 221.062 143.138 216.704 142.47C215.078 142.221 212.107 142.799 210.72 141.932C209.604 141.224 209.434 139.688 209.494 138.382V138.312C209.62 136.606 209.856 134.911 210.202 133.236C210.581 131.142 210.97 129.048 211.349 126.963C211.367 126.694 211.468 126.436 211.638 126.225C212.366 125.488 218.987 127.482 218.977 127.612C219.895 120.631 222.168 113.91 224.671 107.358C225.928 104.047 227.254 100.767 228.511 97.4659C229.279 95.4714 229.767 91.0338 232.18 90.4854C233.484 90.2661 234.817 90.2965 236.109 90.5751C237.1 90.6864 238.078 90.8901 239.031 91.1834C239.468 91.2811 239.87 91.4976 240.192 91.8091C240.514 92.1205 240.744 92.5148 240.856 92.9485C241.616 94.8012 242.129 96.7458 242.382 98.7323C242.856 102.683 242.568 106.687 241.534 110.529Z" fill="#6D4E3C"/>
<path d="M216.624 126.335C218.041 127.214 219.293 128.335 220.324 129.646L220.104 129.357" stroke="#303030" stroke-width="0.5" stroke-linecap="round" stroke-linejoin="round"/>
<path d="M224.083 270.582C222.734 270.824 221.372 270.987 220.004 271.071H219.755C218.538 271.15 217.322 271.2 216.115 271.3C213.256 271.526 210.391 271.636 207.519 271.629C205.774 271.629 203.949 271.699 202.224 271.629C201.783 271.631 201.349 271.53 200.954 271.334C200.559 271.139 200.216 270.854 199.95 270.502C199.732 270.191 199.608 269.824 199.591 269.445C199.585 268.908 199.701 268.376 199.93 267.891C200.16 267.405 200.498 266.978 200.918 266.643C201.763 265.981 202.723 265.48 203.75 265.167C207.38 263.851 211.219 263.063 214.719 261.338C216.367 260.682 217.793 259.568 218.828 258.127C219.635 256.741 219.825 255.075 220.523 253.629C220.682 253.18 220.983 252.795 221.38 252.532C221.865 252.389 222.372 252.335 222.876 252.373C223.754 252.313 224.552 251.814 225.419 251.794C226.405 251.879 227.339 252.27 228.092 252.911C228.31 253.006 228.487 253.176 228.592 253.39C228.696 253.604 228.72 253.848 228.66 254.078C228.6 254.956 228.55 255.823 228.521 256.681C228.471 257.887 228.451 259.104 228.521 260.341C228.521 261.078 228.58 261.946 228.59 262.854C228.59 265.287 228.471 268.039 226.775 269.485C225.982 270.066 225.057 270.443 224.083 270.582Z" fill="#EFA135"/>
<path d="M228.511 265.167C228.508 266.781 227.874 268.331 226.745 269.485C225.961 270.065 225.047 270.445 224.083 270.592C222.735 270.839 221.373 271.002 220.004 271.08H219.755C218.538 271.16 217.322 271.21 216.115 271.31C213.257 271.536 210.394 271.646 207.529 271.639C205.774 271.639 203.959 271.709 202.224 271.639C201.784 271.639 201.349 271.538 200.955 271.342C200.56 271.147 200.217 270.863 199.95 270.512C199.737 270.199 199.613 269.833 199.591 269.455C199.581 268.998 199.665 268.544 199.836 268.121C200.008 267.697 200.264 267.313 200.589 266.992C200.639 267.126 200.706 267.253 200.788 267.371C201.058 267.72 201.404 268.003 201.8 268.198C202.195 268.393 202.63 268.496 203.072 268.498C204.797 268.587 206.622 268.498 208.367 268.498C211.239 268.498 214.104 268.388 216.963 268.169C218.169 268.059 219.386 268.009 220.593 267.929C220.675 267.94 220.759 267.94 220.842 267.929C222.211 267.856 223.573 267.693 224.921 267.441C225.888 267.306 226.805 266.925 227.583 266.334C227.964 266.008 228.279 265.612 228.511 265.167Z" fill="#E58D23"/>
<path d="M258.148 270.582C256.799 270.825 255.437 270.988 254.069 271.071H253.82C252.613 271.151 251.397 271.2 250.19 271.3C247.331 271.526 244.466 271.636 241.594 271.629C239.849 271.629 238.024 271.699 236.299 271.629C235.857 271.63 235.421 271.528 235.025 271.333C234.629 271.137 234.284 270.853 234.015 270.502C233.801 270.19 233.68 269.824 233.666 269.445C233.657 268.908 233.772 268.375 234.002 267.889C234.232 267.403 234.571 266.977 234.993 266.643C235.837 265.978 236.797 265.475 237.825 265.157C241.454 263.841 245.294 263.053 248.794 261.328C250.441 260.674 251.864 259.559 252.893 258.117C253.71 256.731 253.89 255.066 254.598 253.62C254.754 253.169 255.055 252.783 255.455 252.523C255.94 252.379 256.447 252.324 256.951 252.363C257.819 252.303 258.617 251.805 259.494 251.785C260.479 251.873 261.412 252.263 262.167 252.902C262.372 253.019 262.544 253.187 262.665 253.39C262.743 253.607 262.767 253.84 262.735 254.068C262.675 254.946 262.625 255.813 262.595 256.671C262.595 257.878 262.526 259.094 262.595 260.331C262.595 261.069 262.665 261.936 262.675 262.844C262.725 265.277 262.546 268.029 260.85 269.475C260.056 270.065 259.127 270.445 258.148 270.582Z" fill="#EFA135"/>
<path d="M262.645 263.512C262.645 265.765 262.356 268.169 260.81 269.495C260.028 270.078 259.113 270.459 258.148 270.602C256.803 270.849 255.444 271.012 254.079 271.091H253.83C252.613 271.17 251.397 271.22 250.19 271.32C247.331 271.546 244.466 271.656 241.594 271.649C239.849 271.649 238.024 271.719 236.299 271.649C235.857 271.649 235.421 271.548 235.025 271.353C234.629 271.157 234.284 270.873 234.015 270.522C233.805 270.208 233.685 269.843 233.666 269.465C233.636 268.752 233.846 268.049 234.265 267.471C234.534 267.82 234.88 268.103 235.276 268.298C235.672 268.493 236.107 268.596 236.548 268.598C238.273 268.687 240.098 268.598 241.843 268.598C244.715 268.598 247.581 268.488 250.439 268.268C251.646 268.159 252.863 268.109 254.069 268.029C254.155 268.039 254.242 268.039 254.328 268.029C255.694 267.955 257.053 267.792 258.397 267.54C259.365 267.406 260.282 267.025 261.06 266.434C261.899 265.663 262.457 264.635 262.645 263.512Z" fill="#E58D23"/>
<path d="M261.937 265.825C257.59 270.811 247.697 267.381 242.063 267.65C233.04 267.974 224.009 267.289 215.138 265.606C209.773 264.609 208.646 263.731 209.155 258.187C210.106 247.477 211.189 236.783 212.406 226.106C214.899 204.746 217.92 183.456 220.952 162.165C222.518 151.196 223.834 139.798 229.259 129.925C229.451 129.543 229.719 129.203 230.047 128.928C230.628 128.574 231.302 128.404 231.981 128.439C238.323 128.14 245.513 125.936 250.759 129.985C258.218 135.749 260.87 143.338 261.728 152.193C263.131 167.769 264.028 183.392 264.421 199.062C264.6 206.451 264.71 213.861 264.421 221.24C263.942 234.323 264.61 247.487 263.832 260.56C263.805 262.477 263.138 264.33 261.937 265.825Z" fill="#6D4E3C"/>
<path d="M254.328 155.284C254.328 158.276 254.328 161.218 254.019 164.16C253.705 167.603 253.037 171.005 252.025 174.311C252.643 167.78 251.835 161.218 251.028 154.706C250.03 146.529 248.375 137.554 242.791 131.122C241.016 129.068 239.62 129.766 237.236 129.915C235.84 129.995 234.673 129.367 233.407 130.215C230.415 132.209 230.136 137.245 229.588 140.466C228.969 144.116 228.481 147.785 227.962 151.435C224.97 172.716 221.909 194.016 219.416 215.376C218.179 226.013 217.096 236.707 216.165 247.457C215.956 249.74 215.766 253.041 218.499 253.929C221.849 255.026 224.99 249.332 226.476 246.799C230.924 239.389 232.569 230.604 233.726 222.158C235.282 210.759 236.219 199.281 237.156 187.814C236.658 203.184 236.163 218.551 235.671 233.915C235.491 239.389 232.978 250.289 235.521 255.245C238.203 260.47 244.157 256.561 246.49 253.57C249.901 249.122 251.536 243.488 252.673 238.073C255.914 222.526 255.854 206.491 255.605 190.616C255.692 210.367 256.904 230.097 259.235 249.711C259.594 252.702 261.608 255.435 262.805 258.117C263.932 260.64 264.33 263.103 261.977 265.806C257.629 270.792 247.737 267.361 242.113 267.63C233.091 267.97 224.06 267.301 215.188 265.636C209.833 264.639 208.706 263.761 209.204 258.217C210.155 247.507 211.239 236.813 212.455 226.136C214.948 204.776 217.97 183.476 221.002 162.195C222.098 154.427 223.056 146.579 225.449 139.08C227.444 132.757 230.615 125.378 237.097 122.526C240.435 121.077 244.189 120.904 247.647 122.037C248.345 122.208 248.972 122.591 249.442 123.134C250.27 124.251 249.791 125.887 249.442 127.123C248.902 128.665 248.815 130.33 249.193 131.92C249.699 133.621 250.318 135.287 251.048 136.906C253.256 142.78 254.367 149.009 254.328 155.284Z" fill="#604334"/>
<path d="M244.456 130.334C252.084 142.767 254.777 157.607 252.005 171.928" stroke="#4F3629" stroke-width="0.5" stroke-linecap="round" stroke-linejoin="round"/>
<path d="M234.664 133.156C230.291 143.788 228.019 155.167 227.972 166.663" stroke="#4F3629" stroke-width="0.5" stroke-linecap="round" stroke-linejoin="round"/>
<path d="M253.242 115.754C253.421 111.995 253.541 108.235 253.461 104.466C253.473 101.848 253.182 99.2382 252.593 96.6876C251.858 94.0721 250.736 91.5814 249.263 89.2982C247.787 86.895 244.885 81.4901 241.873 81.0214C240.757 80.8419 230.076 81.6396 229.907 82.1981C229.427 84.3864 228.318 86.3865 226.716 87.952C225.186 89.1003 223.872 90.5118 222.837 92.1204C220.842 95.5208 220.074 99.5396 219.656 103.409C219.546 104.526 219.426 105.633 219.336 106.73C218.869 110.688 219.184 114.7 220.264 118.537C221.052 121 223.196 128.588 225.12 130.024C225.87 130.46 226.749 130.618 227.603 130.473L246.431 129.476C247.532 129.434 248.595 129.062 249.482 128.409C249.715 128.225 249.935 128.025 250.14 127.811C250.508 127.76 250.861 127.631 251.176 127.433C251.491 127.236 251.76 126.973 251.965 126.664C252.522 125.643 252.804 124.495 252.783 123.333C252.783 122.944 252.783 122.555 252.853 122.166C253.22 120.05 253.351 117.899 253.242 115.754ZM242.073 81.1011L242.332 82.9061C242.074 82.342 241.984 81.7152 242.073 81.1011Z" fill="#EFA135"/>
<path d="M252.793 123.633C252.795 124.707 252.524 125.763 252.005 126.704C251.797 127.014 251.526 127.278 251.21 127.477C250.894 127.676 250.54 127.807 250.17 127.861C249.963 128.07 249.743 128.266 249.512 128.449C248.626 129.105 247.563 129.48 246.461 129.526L227.633 130.523C226.779 130.659 225.904 130.5 225.15 130.075C223.226 128.639 221.082 121.05 220.294 118.577C219.212 114.744 218.9 110.734 219.376 106.78C219.466 105.673 219.576 104.566 219.696 103.459C219.955 99.5132 221.035 95.6649 222.867 92.1606C223.506 91.0905 224.31 90.128 225.25 89.3086C224.082 92.2676 223.357 95.3824 223.096 98.5528C222.976 99.6597 222.867 100.767 222.777 101.873C222.304 105.832 222.619 109.845 223.704 113.68C224.492 116.144 226.636 123.732 228.561 125.168C229.311 125.603 230.189 125.762 231.044 125.617L249.871 124.62C250.92 124.579 251.934 124.236 252.793 123.633Z" fill="#E58D23"/>
<path d="M171.839 118.238C172.769 118.756 173.781 119.11 174.831 119.285C175.529 119.403 176.245 119.242 176.825 118.836C177.117 118.576 177.344 118.251 177.488 117.887C177.632 117.524 177.688 117.131 177.653 116.742C177.526 115.501 176.917 114.358 175.958 113.561C175.009 112.763 173.959 112.092 172.836 111.566C170.842 110.569 168.1 110.459 165.916 109.742C163.505 108.953 161.169 107.952 158.935 106.75C157.994 106.183 156.99 105.727 155.944 105.394C155.701 105.294 155.428 105.294 155.186 105.394C154.857 105.573 154.797 106.022 154.787 106.391C154.717 107.244 154.785 108.102 154.986 108.934C155.754 111.596 160.122 112.623 162.366 113.69L171.839 118.238Z" fill="#EFA135"/>
<path d="M151.396 105.613C151.226 107.607 151.665 110.958 153.311 112.324C154.188 113.052 154.218 112.494 154.777 111.925C155.335 111.357 156.033 111.466 156.372 110.928C156.555 110.359 156.61 109.756 156.532 109.163C156.532 107.847 156.621 106.251 155.903 105.084C155.515 104.446 153.909 102.382 153.051 102.492C151.895 102.621 151.476 104.785 151.396 105.613Z" fill="#6D4E3C"/>
<path d="M181.951 101.405C181.971 101.477 181.971 101.553 181.951 101.624C181.841 101.764 181.612 101.694 181.452 101.624C179.694 100.665 178.266 99.1985 177.354 97.416C177.274 97.2465 177.194 97.0371 177.354 96.8975C177.41 96.8289 177.487 96.78 177.573 96.7579C178.27 96.5761 178.915 96.2347 179.458 95.7607C179.769 95.2569 179.97 94.6926 180.046 94.1053C180.395 92.9972 181.108 92.0391 182.069 91.3859C183.029 90.7327 184.182 90.4225 185.341 90.5053C186.341 90.6509 187.289 91.0436 188.098 91.6478C188.908 92.252 189.554 93.0487 189.978 93.9657C190.818 95.8166 191.072 97.8799 190.706 99.8792C190.339 101.862 189.774 103.803 189.021 105.673C188.732 106.471 188.682 107.288 188.333 108.056C188.333 108.116 188.273 108.186 188.213 108.196C188.164 108.211 188.112 108.211 188.064 108.196C187.547 107.882 187.063 107.518 186.618 107.109C186.496 107.016 186.397 106.897 186.329 106.76C186.224 106.487 186.224 106.185 186.329 105.912C186.536 105.34 186.803 104.792 187.126 104.277C187.428 103.59 187.636 102.865 187.745 102.123C187.914 101.305 188.243 100.557 188.383 99.7296C188.669 98.0239 188.385 96.2716 187.575 94.7435C187.285 94.1462 186.845 93.6342 186.299 93.2577C184.524 92.1607 182.31 93.8061 181.841 95.5911C181.662 96.5333 181.662 97.501 181.841 98.4432C181.928 99.4279 181.964 100.416 181.951 101.405Z" fill="#E58D23"/>
<path d="M187.306 105.543L187.066 105.324C185.79 104.207 184.763 102.921 183.596 101.684C182.718 100.712 181.742 99.8333 180.684 99.0613C179.62 98.1582 178.621 97.1819 177.693 96.1395C176.536 95.0725 175.18 94.2847 174.033 93.2177C173.963 93.137 173.868 93.081 173.764 93.0581C173.699 93.0624 173.635 93.0795 173.577 93.1086C173.519 93.1378 173.467 93.1782 173.425 93.2276L173.165 93.457C169.815 96.3788 166.185 98.9516 162.974 102.133C164.36 106.231 167.252 108.734 169.875 111.935C171.59 114.02 173.255 116.144 174.94 118.258C176.187 119.833 177.832 122.984 179.976 123.433C181.422 123.742 183.317 121.828 184.494 121.12C186.648 119.833 188.732 118.427 190.846 117.071C191.59 116.701 192.2 116.109 192.591 115.376C192.826 114.592 192.773 113.75 192.441 113.002C192.064 111.891 191.523 110.843 190.836 109.891C189.813 108.324 188.63 106.866 187.306 105.543Z" fill="#EFA135"/>
<path d="M192.541 115.375C192.145 116.111 191.532 116.706 190.786 117.081C188.672 118.427 186.588 119.833 184.434 121.129C183.257 121.837 181.362 123.742 179.916 123.443C177.772 122.994 176.137 119.833 174.88 118.257C173.195 116.143 171.53 114.019 169.824 111.935C167.192 108.744 164.3 106.231 162.914 102.132C163.692 101.355 164.489 100.617 165.317 99.9087C166.803 102.282 168.797 104.197 170.652 106.45C172.367 108.535 174.033 110.659 175.708 112.773C176.965 114.348 178.6 117.51 180.744 117.958C182.19 118.257 184.085 116.353 185.261 115.645C187.415 114.348 189.51 112.942 191.624 111.596L191.763 111.506C192.001 111.992 192.211 112.492 192.391 113.002C192.718 113.751 192.771 114.591 192.541 115.375Z" fill="#E58D23"/>
<path d="M200.17 105.982C199.96 107.517 198.514 108.604 197.278 109.611C197.04 109.845 196.738 110.001 196.41 110.06C196.209 110.075 196.009 110.022 195.842 109.911C195.448 109.545 195.153 109.085 194.984 108.574C194.516 107.487 193.833 106.505 192.976 105.687C192.12 104.87 191.107 104.234 189.998 103.818C189.34 103.559 188.648 103.395 187.944 103.329C186.807 103.209 185.291 103.06 185.052 101.933C184.912 101.245 185.391 100.557 185.321 99.8487C185.232 98.8515 184.145 98.0138 184.583 97.1562C184.733 96.877 185.002 96.6875 185.122 96.3983C185.481 95.4011 183.716 94.5734 184.125 93.6161C184.404 92.948 185.361 93.0676 186.039 93.297L187.246 93.7059L189.679 94.5335C189.376 94.1734 189.042 93.8398 188.682 93.5363C187.828 92.8115 186.861 92.2321 185.82 91.8211C184.962 91.492 183.825 90.8239 184.154 90.0062C184.484 89.1885 185.591 89.3281 186.388 89.5973C188.171 90.0704 189.844 90.8868 191.315 92.0006C192.016 92.6402 192.635 93.3637 193.159 94.1546C193.269 94.3142 193.389 94.4737 193.488 94.6333L197.298 100.078C197.737 100.696 198.295 101.434 198.873 102.232C199.524 103.093 199.986 104.082 200.23 105.134C200.261 105.418 200.241 105.705 200.17 105.982Z" fill="#F2C19F"/>
<path d="M178.64 126.874C180.669 126.524 182.724 126.337 184.783 126.315C186.367 126.211 187.955 126.463 189.43 127.053C191.554 128.05 192.92 130.194 194.845 131.531C194.845 129.775 196.261 128.13 195.842 126.415C195.567 125.522 195.007 124.744 194.246 124.201C191.772 122.166 188.605 121.169 185.411 121.419C183.626 121.568 181.731 122.087 180.116 121.309C178.211 120.392 177.264 118.417 175.07 117.879C173.494 117.49 172.168 117.51 172.477 119.265C172.756 120.801 174.103 122.396 174.621 123.902C175.409 126.126 176.037 127.312 178.64 126.874Z" fill="#F2C19F"/>
<path d="M148.953 103.908C146.718 103.647 144.457 104.086 142.481 105.164" stroke="#73733F" stroke-linecap="round" stroke-linejoin="round"/>
<path d="M148.773 108.734C146.735 109.159 144.798 109.975 143.069 111.138" stroke="#73733F" stroke-linecap="round" stroke-linejoin="round"/>
<path d="M151.216 113.272C150.269 114.073 149.431 114.995 148.723 116.014L147.876 117.121" stroke="#73733F" stroke-linecap="round" stroke-linejoin="round"/>
<path d="M141.853 107.997L137.126 110.918" stroke="#73733F" stroke-linecap="round" stroke-linejoin="round"/>
<path d="M144.974 114.229C143.131 115.185 141.449 116.423 139.988 117.899" stroke="#73733F" stroke-linecap="round" stroke-linejoin="round"/>
<path d="M136.667 116.652C135.816 118.108 134.965 119.56 134.115 121.01" stroke="#73733F" stroke-linecap="round" stroke-linejoin="round"/>
<path d="M143.129 121.289C141.682 122.68 140.5 124.322 139.639 126.136" stroke="#73733F" stroke-linecap="round" stroke-linejoin="round"/>
<path d="M202.573 110.958C201.51 108.715 200.59 106.407 199.821 104.047C199.802 103.874 199.737 103.709 199.634 103.568C199.531 103.427 199.393 103.316 199.234 103.246C199.074 103.175 198.899 103.147 198.726 103.166C198.552 103.184 198.386 103.247 198.245 103.349C197.068 103.629 195.164 103.659 194.416 104.765C193.419 106.191 194.416 108.136 195.274 109.353C197.309 112.162 199.088 115.149 200.589 118.278C202.324 122.037 203.83 128.12 206.572 131.241C208.856 133.834 212.605 132.069 213.552 128.768C213.951 127.384 213.951 125.915 213.552 124.53C212.605 121.339 209.863 118.976 207.459 116.842C205.496 115.184 203.842 113.192 202.573 110.958Z" fill="#F2C19F"/>
<path d="M238.981 113.451C238.294 115.335 237.481 117.171 236.548 118.946C235.331 121.339 233.925 123.643 232.479 125.926L228.331 134.163L226.386 138.013L226.117 138.541C225.06 140.536 223.844 142.6 221.889 143.727C219.067 145.322 215.377 144.504 212.784 142.58C210.837 141.037 209.061 139.289 207.489 137.364C206.402 136.138 203.75 134.672 203.281 133.146C202.882 131.88 203.73 130.593 204.617 129.636V129.586C205.811 128.362 207.08 127.213 208.417 126.146C210.062 124.78 211.697 123.433 213.323 122.067C213.518 121.881 213.759 121.75 214.021 121.688C214.52 121.688 216.694 124.48 217.202 124.909C217.247 124.958 217.303 124.996 217.365 125.02C217.428 125.045 217.495 125.054 217.561 125.049C217.691 125.049 217.741 124.869 217.79 124.74C219.456 119.754 221.251 114.907 222.956 109.891C224.083 106.57 225.26 103.27 226.596 100.029C227.593 97.6254 228.59 93.0482 231.582 92.5995C232.901 92.505 234.227 92.6572 235.491 93.0482C236.466 93.2577 237.421 93.5547 238.343 93.9357C238.77 94.0734 239.15 94.3274 239.441 94.6691C239.731 95.0108 239.921 95.4268 239.988 95.8703C240.579 97.7823 240.914 99.764 240.986 101.764C241.07 105.752 240.389 109.719 238.981 113.451Z" fill="#6D4E3C"/>
<path d="M240.996 102.382C240.997 106.161 240.321 109.91 239.002 113.451C238.314 115.335 237.501 117.17 236.568 118.946C235.352 121.339 233.946 123.642 232.5 125.926L228.351 134.163L226.407 138.012L226.138 138.541C225.08 140.535 223.864 142.599 221.909 143.726C220.57 144.422 219.039 144.66 217.552 144.404C215.18 144.014 213.01 142.838 211.389 141.064L207.171 136.606" stroke="#4F3629" stroke-width="0.5" stroke-linecap="round" stroke-linejoin="round"/>
<path d="M214.071 121.678C214.57 121.678 216.744 124.47 217.252 124.899C217.298 124.948 217.353 124.986 217.416 125.01C217.478 125.035 217.545 125.044 217.611 125.039C217.741 125.039 217.791 124.859 217.841 124.729C219.506 119.743 221.301 114.897 223.006 109.881C224.193 106.391 225.429 102.9 226.855 99.5" stroke="#4F3629" stroke-width="0.5" stroke-linecap="round" stroke-linejoin="round"/>
<path d="M217.791 124.949C218.312 126.531 218.555 128.191 218.509 129.856C218.509 129.736 218.509 129.616 218.509 129.497" stroke="#4F3629" stroke-width="0.5" stroke-linecap="round" stroke-linejoin="round"/>
<path d="M240.717 74.4102C240.717 76.4046 241.973 79.3963 240.148 81.7497C238.852 83.0549 237.398 84.1938 235.82 85.1402C235.098 85.651 234.346 86.1172 233.567 86.5363C233.228 86.7158 232.231 87.4537 231.872 87.2742C231.513 87.0947 231.443 85.1203 231.333 84.6017C231.144 83.7042 230.944 82.8167 230.755 81.9292C230.615 81.3408 230.376 80.7924 230.236 80.214C230.105 79.8147 230.012 79.4041 229.957 78.9874C229.939 78.8193 229.97 78.6496 230.047 78.4988C230.376 77.8905 231.343 77.3719 231.842 76.8334C232.34 76.2949 232.929 75.5371 233.437 74.839C234.381 73.4716 235.403 72.1597 236.499 70.91C236.577 70.7976 236.682 70.7056 236.803 70.6415C236.925 70.5773 237.059 70.5429 237.197 70.541C237.325 70.5687 237.445 70.6268 237.546 70.7105L239.121 71.8174C239.608 72.1052 240.04 72.4765 240.398 72.9144C240.673 73.3615 240.786 73.8897 240.717 74.4102Z" fill="#F2C19F"/>
<path d="M237.655 75.218C238.028 73.9202 238.229 72.5792 238.253 71.2292L237.545 70.7306C237.441 70.6517 237.322 70.5941 237.196 70.561C237.059 70.5637 236.925 70.5985 236.803 70.6626C236.682 70.7267 236.578 70.8182 236.498 70.93C235.404 72.2018 234.382 73.5335 233.437 74.9189C232.939 75.6103 232.406 76.276 231.841 76.9133C231.352 77.4518 230.375 77.9105 230.046 78.5786C229.975 78.7313 229.945 78.8994 229.956 79.0673C230.011 79.4839 230.105 79.8946 230.236 80.2938C230.345 80.7426 230.505 81.1714 230.644 81.6102L231.721 81.2412C232.789 80.941 233.8 80.4658 234.713 79.8351C236.068 78.5695 237.08 76.9809 237.655 75.218Z" fill="#E8B089"/>
<path d="M236.718 66.3527C236.351 64.57 235.786 62.834 235.033 61.1772C234.58 59.5372 233.545 58.1187 232.121 57.1883C231.044 56.6123 229.883 56.2117 228.68 56.0017C228.065 55.8477 227.428 55.7971 226.796 55.8521C226.22 55.9581 225.663 56.1462 225.14 56.4105C224.243 56.7191 223.446 57.2634 222.832 57.9863C222.218 58.7092 221.81 59.584 221.65 60.519C221.65 61.7154 221.58 62.9108 221.441 64.099C220.852 66.4724 219.556 68.0879 218.13 69.9926C217.994 70.1334 217.909 70.3162 217.891 70.5111C217.898 70.6952 217.969 70.8711 218.09 71.0097C218.475 71.4089 218.892 71.7758 219.336 72.1066C220.334 72.9942 220.523 74.5698 220.553 75.8262C220.557 76.5371 220.715 77.2387 221.016 77.8825C221.318 78.5264 221.755 79.0973 222.298 79.5558C223.029 80.18 223.89 80.6343 224.817 80.8861C225.745 81.1378 226.717 81.1808 227.663 81.0118C231.483 80.4234 234.973 78.0899 236.189 74.3205C236.573 72.9979 236.775 71.629 236.788 70.2518C236.864 68.9523 236.841 67.6487 236.718 66.3527Z" fill="#F2C19F"/>
<path d="M218.818 71.1889L218.907 71.2487L219.396 71.6376C219.41 71.6153 219.418 71.5893 219.418 71.5628C219.418 71.5364 219.41 71.5104 219.396 71.488C219.335 71.2595 219.248 71.0387 219.137 70.8299C219.057 70.7202 218.917 70.5208 218.768 70.5108C218.728 70.5101 218.688 70.5183 218.652 70.5348C218.615 70.5514 218.583 70.5758 218.557 70.6064C218.532 70.6369 218.513 70.6728 218.503 70.7115C218.493 70.7502 218.491 70.7906 218.499 70.8299C218.538 71.0194 218.708 71.0991 218.818 71.1889Z" fill="#E8B089"/>
<path d="M224.153 66.0237C224.063 66.5921 223.654 67.0209 223.246 66.9312C222.837 66.8414 222.587 66.3428 222.677 65.7844C222.767 65.2259 223.176 64.7872 223.585 64.8769C223.994 64.9667 224.243 65.4553 224.153 66.0237Z" fill="#6D4E3C"/>
<path d="M220.922 73.6224C221.639 73.8222 222.392 73.8587 223.126 73.7293C223.859 73.5998 224.554 73.3078 225.16 72.8745C225.16 72.8745 225.399 75.208 221.171 75.7365L220.922 73.6224Z" fill="white"/>
<path d="M232.669 68.3172C232.644 68.3414 232.615 68.3601 232.582 68.3722C232.549 68.3842 232.514 68.3892 232.48 68.387C232.44 68.3748 232.404 68.3543 232.373 68.3268C232.342 68.2992 232.317 68.2654 232.3 68.2275C232.236 68.0974 232.205 67.9535 232.211 67.8086C232.226 67.6514 232.282 67.5008 232.373 67.3715C232.464 67.2423 232.586 67.1386 232.729 67.0707C232.892 66.9808 233.082 66.9514 233.264 66.988C233.447 67.0245 233.61 67.1244 233.726 67.2701C233.933 67.5203 234.049 67.8331 234.055 68.1577C234.054 68.3298 234.012 68.4991 233.932 68.6517C233.852 68.8043 233.737 68.9357 233.597 69.0352C233.407 69.1261 233.23 69.24 233.068 69.3743C232.94 69.5349 232.864 69.7313 232.851 69.9366C232.839 70.1419 232.89 70.346 232.998 70.5211C232.871 70.4576 232.758 70.3674 232.668 70.2567C232.578 70.146 232.513 70.0174 232.477 69.8794C232.441 69.7414 232.436 69.5973 232.46 69.4568C232.485 69.3164 232.539 69.1828 232.619 69.0651C232.759 68.7759 233.078 68.6064 233.188 68.4967C233.242 68.4566 233.284 68.4037 233.312 68.3426C233.34 68.2816 233.352 68.2146 233.347 68.1477C233.35 67.987 233.301 67.8296 233.208 67.6989C233.208 67.5793 233.078 67.5593 232.939 67.5793C232.855 67.5969 232.777 67.633 232.71 67.6847C232.643 67.7365 232.588 67.8027 232.55 67.8784C232.512 67.9708 232.488 68.0683 232.48 68.1676C232.43 68.2574 232.48 68.3372 232.669 68.3172Z" fill="#EAAD83"/>
<path d="M225 63.4905C224.782 63.1244 224.429 62.8587 224.017 62.7505C223.604 62.6423 223.166 62.7004 222.796 62.9121C222.378 63.1315 222.737 63.7797 223.155 63.5603C223.352 63.4435 223.587 63.4073 223.81 63.4593C224.033 63.5113 224.227 63.6476 224.352 63.8395C224.611 64.2384 225.26 63.8395 225 63.4905Z" fill="#6D4E3C"/>
<path d="M247.139 74.2107C246.786 75.0058 246.344 75.7584 245.823 76.4544C244.257 78.5685 242.033 80.0045 239.321 79.4461C237.975 79.1868 237.456 77.9203 237.097 76.7536C236.668 75.4073 235.531 74.6295 234.953 73.4428C234.676 72.8547 234.521 72.2163 234.499 71.5665C234.477 70.9167 234.587 70.2691 234.823 69.6634C235.212 68.6662 235.322 66.961 234.325 66.2928C233.738 66.0573 233.112 65.9355 232.48 65.9338C231.592 65.7643 231.333 64.3383 231.074 63.6203C230.832 62.5735 230.3 61.6161 229.538 60.858C228.823 60.3579 227.977 60.0772 227.105 60.0503C226.232 59.9699 225.366 59.83 224.512 59.6314C222.119 59.073 219.905 56.6398 221.66 54.1567C222.657 52.6609 225.549 52.0925 227.215 51.4742C229.854 50.5404 232.643 50.1042 235.442 50.1878C236.864 50.2042 238.277 50.419 239.64 50.826C242.761 51.9294 245.327 54.2091 246.79 57.1783C248.444 60.7306 249.03 64.6873 248.475 68.5665C248.334 70.5071 247.882 72.4126 247.139 74.2107Z" fill="#C64607"/>
<path d="M236.728 53.3594C238.247 54.1132 239.584 55.1885 240.647 56.5106C241.724 57.8424 242.548 59.3598 243.08 60.9881C243.576 62.6022 243.809 64.2859 243.768 65.9741C243.722 67.6736 243.412 69.3556 242.85 70.9602C243.221 69.3245 243.398 67.6511 243.379 65.9741C243.367 64.3155 243.105 62.6681 242.601 61.0878C242.103 59.5084 241.341 58.0248 240.347 56.7C239.347 55.3819 238.122 54.2509 236.728 53.3594Z" stroke="#B73B04" stroke-miterlimit="10"/>
<path d="M236.299 59.8809C237.148 60.6378 237.828 61.5655 238.293 62.6033C238.761 63.6429 239.061 64.7503 239.181 65.8841C239.291 67.0095 239.271 68.1438 239.121 69.2646C238.975 70.375 238.728 71.4698 238.383 72.5355C238.523 71.4286 238.672 70.3217 238.732 69.2247C238.822 68.1297 238.822 67.029 238.732 65.9339C238.612 64.8484 238.364 63.7807 237.994 62.7528C237.584 61.712 237.012 60.7426 236.299 59.8809Z" fill="#B73B04"/>
<path d="M229.309 95.1721C229.219 95.5411 229.129 95.91 229.029 96.289C228.204 99.0077 227.045 101.614 225.579 104.047C225.459 104.267 225.31 104.506 225.06 104.526C224.811 104.546 224.542 104.177 224.522 103.858C224.522 103.16 224.522 102.472 224.522 101.774C224.422 99.726 224.366 97.6784 224.352 95.6308C224.242 93.0807 224.501 90.5281 225.12 88.052C225.391 87.0295 225.837 86.0613 226.437 85.19C227.033 84.3757 227.749 83.6563 228.561 83.0559C230.426 81.6058 232.552 80.526 234.823 79.8748C235.771 79.6926 236.671 79.3156 237.466 78.7679C238.124 78.2594 238.642 77.7707 239.54 78.0699C239.909 78.2285 240.235 78.4734 240.49 78.784C240.745 79.0946 240.922 79.4618 241.006 79.8549C242.003 83.4947 237.675 85.549 235.292 87.1545C233.643 88.2714 232.194 89.6568 231.004 91.253C230.17 92.4259 229.592 93.7612 229.309 95.1721Z" fill="#C64607"/>
<path d="M241.863 80.1341C241.835 80.2101 241.791 80.2797 241.736 80.3388C241.68 80.398 241.613 80.4456 241.539 80.479C241.465 80.5123 241.385 80.5307 241.304 80.5332C241.223 80.5356 241.142 80.522 241.066 80.4931L237.296 79.0472C237.22 79.0184 237.151 78.9749 237.092 78.9192C237.032 78.8636 236.985 78.7968 236.951 78.7227C236.918 78.6486 236.9 78.5687 236.897 78.4875C236.895 78.4062 236.908 78.3253 236.937 78.2494C236.966 78.1734 237.009 78.1039 237.065 78.0447C237.121 77.9855 237.188 77.9379 237.262 77.9046C237.336 77.8712 237.416 77.8528 237.497 77.8504C237.578 77.8479 237.659 77.8615 237.735 77.8904L241.504 79.3264C241.659 79.3866 241.783 79.5052 241.85 79.6564C241.917 79.8077 241.922 79.9794 241.863 80.1341Z" fill="#6D4E3C"/>
<path d="M226.446 61.0273C227.46 62.9674 228.154 65.0586 228.501 67.22C228.842 69.4626 229.725 71.5882 231.073 73.4127C230.914 70.7003 231.303 67.9779 231.133 65.2655C230.884 61.3863 229.089 57.0485 224.581 57.2878C224.113 57.2675 223.651 57.4006 223.265 57.6667C222.388 58.3947 223.215 59.1127 223.943 59.4916C224.94 60.0102 225.648 59.8207 226.327 60.8877L226.446 61.0273Z" fill="#C64607"/>
</svg>
