<svg width="229" height="146" viewBox="0 0 229 146" fill="none" xmlns="http://www.w3.org/2000/svg">
<g clip-path="url(#clip0_25_2756)">
<path d="M126.155 41.4186C122.127 44.4001 117.225 46.0082 112.19 46.0001H93.5V25.3677H96.7628C102.638 25.3696 108.417 26.8433 113.558 29.6507C118.699 32.458 123.033 36.5071 126.155 41.4186Z" fill="#EAFF44"/>
<path d="M135.5 23C135.506 26.5135 134.691 29.9811 133.12 33.134C128.923 27.5131 123.446 22.944 117.131 19.7954C110.815 16.6467 103.839 15.0066 96.7628 15.0072H93.5V0H112.19C118.372 0 124.301 2.42321 128.673 6.73655C133.044 11.0499 135.5 16.9 135.5 23Z" fill="#FDFFEC"/>
</g>
<path d="M29.9989 101L23.3398 77.7273H28.7148L32.567 93.8977H32.7602L37.0102 77.7273H41.6125L45.8511 93.9318H46.0557L49.908 77.7273H55.283L48.6239 101H43.8284L39.3966 85.7841H39.2148L34.7943 101H29.9989ZM63.7451 101.341C61.9497 101.341 60.4042 100.977 59.1088 100.25C57.8209 99.5152 56.8285 98.4773 56.1315 97.1364C55.4345 95.7879 55.086 94.1932 55.086 92.3523C55.086 90.5568 55.4345 88.9811 56.1315 87.625C56.8285 86.2689 57.8095 85.2121 59.0747 84.4545C60.3474 83.697 61.8398 83.3182 63.5519 83.3182C64.7035 83.3182 65.7754 83.5038 66.7678 83.875C67.7678 84.2386 68.6391 84.7879 69.3815 85.5227C70.1315 86.2576 70.7148 87.1818 71.1315 88.2955C71.5481 89.4015 71.7565 90.697 71.7565 92.1818V93.5114H57.0178V90.5114H67.1997C67.1997 89.8144 67.0481 89.197 66.7451 88.6591C66.4421 88.1212 66.0216 87.7008 65.4838 87.3977C64.9535 87.0871 64.336 86.9318 63.6315 86.9318C62.8966 86.9318 62.2451 87.1023 61.6769 87.4432C61.1163 87.7765 60.6769 88.2273 60.3588 88.7955C60.0406 89.3561 59.8777 89.9811 59.8701 90.6705V93.5227C59.8701 94.3864 60.0292 95.1326 60.3474 95.7614C60.6731 96.3902 61.1315 96.875 61.7224 97.2159C62.3133 97.5568 63.0141 97.7273 63.8247 97.7273C64.3625 97.7273 64.855 97.6515 65.3019 97.5C65.7489 97.3485 66.1315 97.1212 66.4497 96.8182C66.7678 96.5152 67.0103 96.1439 67.1769 95.7045L71.6542 96C71.4269 97.0758 70.961 98.0152 70.2565 98.8182C69.5595 99.6136 68.658 100.235 67.5519 100.682C66.4535 101.121 65.1845 101.341 63.7451 101.341ZM79.5965 77.7273V101H74.7556V77.7273H79.5965ZM91.2007 101.341C89.4128 101.341 87.8749 100.962 86.5871 100.205C85.3067 99.4394 84.3219 98.3788 83.6325 97.0227C82.9507 95.6667 82.6098 94.1061 82.6098 92.3409C82.6098 90.553 82.9545 88.9848 83.6439 87.6364C84.3408 86.2803 85.3295 85.2235 86.6098 84.4659C87.8901 83.7008 89.4128 83.3182 91.178 83.3182C92.7007 83.3182 94.034 83.5947 95.178 84.1477C96.3219 84.7008 97.2272 85.4773 97.8939 86.4773C98.5605 87.4773 98.928 88.6515 98.9961 90H94.428C94.2992 89.1288 93.9583 88.428 93.4052 87.8977C92.8598 87.3598 92.1439 87.0909 91.2575 87.0909C90.5075 87.0909 89.8522 87.2955 89.2916 87.7045C88.7386 88.1061 88.3067 88.6932 87.9961 89.4659C87.6855 90.2386 87.5302 91.1742 87.5302 92.2727C87.5302 93.3864 87.6817 94.3333 87.9848 95.1136C88.2954 95.8939 88.731 96.4886 89.2916 96.8977C89.8522 97.3068 90.5075 97.5114 91.2575 97.5114C91.8105 97.5114 92.3068 97.3977 92.7461 97.1705C93.1931 96.9432 93.5605 96.6136 93.8484 96.1818C94.1439 95.7424 94.3371 95.2159 94.428 94.6023H98.9961C98.9204 95.9356 98.5567 97.1098 97.9052 98.125C97.2613 99.1326 96.3711 99.9205 95.2348 100.489C94.0984 101.057 92.7537 101.341 91.2007 101.341ZM109.822 101.341C108.057 101.341 106.53 100.966 105.242 100.216C103.962 99.4583 102.973 98.4053 102.276 97.0568C101.58 95.7008 101.231 94.1288 101.231 92.3409C101.231 90.5379 101.58 88.9621 102.276 87.6136C102.973 86.2576 103.962 85.2045 105.242 84.4545C106.53 83.697 108.057 83.3182 109.822 83.3182C111.587 83.3182 113.11 83.697 114.39 84.4545C115.678 85.2045 116.67 86.2576 117.367 87.6136C118.064 88.9621 118.413 90.5379 118.413 92.3409C118.413 94.1288 118.064 95.7008 117.367 97.0568C116.67 98.4053 115.678 99.4583 114.39 100.216C113.11 100.966 111.587 101.341 109.822 101.341ZM109.845 97.5909C110.648 97.5909 111.318 97.3636 111.856 96.9091C112.394 96.447 112.799 95.8182 113.072 95.0227C113.352 94.2273 113.492 93.322 113.492 92.3068C113.492 91.2917 113.352 90.3864 113.072 89.5909C112.799 88.7955 112.394 88.1667 111.856 87.7045C111.318 87.2424 110.648 87.0114 109.845 87.0114C109.034 87.0114 108.352 87.2424 107.799 87.7045C107.254 88.1667 106.841 88.7955 106.561 89.5909C106.288 90.3864 106.151 91.2917 106.151 92.3068C106.151 93.322 106.288 94.2273 106.561 95.0227C106.841 95.8182 107.254 96.447 107.799 96.9091C108.352 97.3636 109.034 97.5909 109.845 97.5909ZM121.401 101V83.5455H126.014V86.625H126.219C126.582 85.6023 127.188 84.7955 128.037 84.2045C128.885 83.6136 129.901 83.3182 131.082 83.3182C132.279 83.3182 133.298 83.6174 134.139 84.2159C134.98 84.8068 135.541 85.6098 135.821 86.625H136.003C136.359 85.625 137.003 84.8258 137.935 84.2273C138.874 83.6212 139.984 83.3182 141.264 83.3182C142.893 83.3182 144.215 83.8371 145.23 84.875C146.253 85.9053 146.764 87.3674 146.764 89.2614V101H141.935V90.2159C141.935 89.2462 141.677 88.5189 141.162 88.0341C140.647 87.5492 140.003 87.3068 139.23 87.3068C138.351 87.3068 137.666 87.5871 137.173 88.1477C136.681 88.7008 136.435 89.4318 136.435 90.3409V101H131.741V90.1136C131.741 89.2576 131.495 88.5758 131.003 88.0682C130.518 87.5606 129.878 87.3068 129.082 87.3068C128.545 87.3068 128.06 87.4432 127.628 87.7159C127.204 87.9811 126.866 88.3561 126.616 88.8409C126.366 89.3182 126.241 89.8788 126.241 90.5227V101H121.401ZM158.383 101.341C156.587 101.341 155.042 100.977 153.746 100.25C152.458 99.5152 151.466 98.4773 150.769 97.1364C150.072 95.7879 149.724 94.1932 149.724 92.3523C149.724 90.5568 150.072 88.9811 150.769 87.625C151.466 86.2689 152.447 85.2121 153.712 84.4545C154.985 83.697 156.477 83.3182 158.189 83.3182C159.341 83.3182 160.413 83.5038 161.405 83.875C162.405 84.2386 163.277 84.7879 164.019 85.5227C164.769 86.2576 165.352 87.1818 165.769 88.2955C166.186 89.4015 166.394 90.697 166.394 92.1818V93.5114H151.655V90.5114H161.837C161.837 89.8144 161.686 89.197 161.383 88.6591C161.08 88.1212 160.659 87.7008 160.121 87.3977C159.591 87.0871 158.974 86.9318 158.269 86.9318C157.534 86.9318 156.883 87.1023 156.314 87.4432C155.754 87.7765 155.314 88.2273 154.996 88.7955C154.678 89.3561 154.515 89.9811 154.508 90.6705V93.5227C154.508 94.3864 154.667 95.1326 154.985 95.7614C155.311 96.3902 155.769 96.875 156.36 97.2159C156.951 97.5568 157.652 97.7273 158.462 97.7273C159 97.7273 159.492 97.6515 159.939 97.5C160.386 97.3485 160.769 97.1212 161.087 96.8182C161.405 96.5152 161.648 96.1439 161.814 95.7045L166.292 96C166.064 97.0758 165.599 98.0152 164.894 98.8182C164.197 99.6136 163.295 100.235 162.189 100.682C161.091 101.121 159.822 101.341 158.383 101.341ZM185.923 83.5455V87.1818H175.412V83.5455H185.923ZM177.798 79.3636H182.639V95.6364C182.639 96.0833 182.708 96.4318 182.844 96.6818C182.98 96.9242 183.17 97.0947 183.412 97.1932C183.662 97.2917 183.95 97.3409 184.276 97.3409C184.503 97.3409 184.73 97.322 184.958 97.2841C185.185 97.2386 185.359 97.2045 185.48 97.1818L186.242 100.784C185.999 100.86 185.658 100.947 185.219 101.045C184.779 101.152 184.245 101.216 183.617 101.239C182.45 101.284 181.427 101.129 180.548 100.773C179.677 100.417 178.999 99.8636 178.514 99.1136C178.029 98.3636 177.791 97.4167 177.798 96.2727V79.3636ZM196.616 101.341C194.851 101.341 193.324 100.966 192.036 100.216C190.756 99.4583 189.767 98.4053 189.07 97.0568C188.373 95.7008 188.025 94.1288 188.025 92.3409C188.025 90.5379 188.373 88.9621 189.07 87.6136C189.767 86.2576 190.756 85.2045 192.036 84.4545C193.324 83.697 194.851 83.3182 196.616 83.3182C198.381 83.3182 199.904 83.697 201.184 84.4545C202.472 85.2045 203.464 86.2576 204.161 87.6136C204.858 88.9621 205.207 90.5379 205.207 92.3409C205.207 94.1288 204.858 95.7008 204.161 97.0568C203.464 98.4053 202.472 99.4583 201.184 100.216C199.904 100.966 198.381 101.341 196.616 101.341ZM196.638 97.5909C197.441 97.5909 198.112 97.3636 198.65 96.9091C199.188 96.447 199.593 95.8182 199.866 95.0227C200.146 94.2273 200.286 93.322 200.286 92.3068C200.286 91.2917 200.146 90.3864 199.866 89.5909C199.593 88.7955 199.188 88.1667 198.65 87.7045C198.112 87.2424 197.441 87.0114 196.638 87.0114C195.828 87.0114 195.146 87.2424 194.593 87.7045C194.048 88.1667 193.635 88.7955 193.354 89.5909C193.082 90.3864 192.945 91.2917 192.945 92.3068C192.945 93.322 193.082 94.2273 193.354 95.0227C193.635 95.8182 194.048 96.447 194.593 96.9091C195.146 97.3636 195.828 97.5909 196.638 97.5909Z" fill="white"/>
<path d="M65.873 139.284C64.5473 139.284 63.3465 138.943 62.2707 138.261C61.2026 137.572 60.3541 136.561 59.7253 135.227C59.1041 133.886 58.7935 132.242 58.7935 130.295C58.7935 128.295 59.1154 126.633 59.7594 125.307C60.4033 123.973 61.2594 122.977 62.3276 122.318C63.4033 121.652 64.5813 121.318 65.8616 121.318C66.8389 121.318 67.6533 121.485 68.3048 121.818C68.9639 122.144 69.4942 122.553 69.8957 123.045C70.3048 123.53 70.6154 124.008 70.8276 124.477H70.9753V115.727H75.8048V139H71.0321V136.205H70.8276C70.6003 136.689 70.2783 137.17 69.8616 137.648C69.4526 138.117 68.9185 138.508 68.2594 138.818C67.6079 139.129 66.8124 139.284 65.873 139.284ZM67.4071 135.432C68.1874 135.432 68.8465 135.22 69.3844 134.795C69.9298 134.364 70.3465 133.761 70.6344 132.989C70.9298 132.216 71.0776 131.311 71.0776 130.273C71.0776 129.235 70.9336 128.333 70.6457 127.568C70.3579 126.803 69.9412 126.212 69.3957 125.795C68.8503 125.379 68.1874 125.17 67.4071 125.17C66.6116 125.17 65.9412 125.386 65.3957 125.818C64.8503 126.25 64.4374 126.848 64.1571 127.614C63.8768 128.379 63.7366 129.265 63.7366 130.273C63.7366 131.288 63.8768 132.186 64.1571 132.966C64.445 133.739 64.8579 134.345 65.3957 134.784C65.9412 135.216 66.6116 135.432 67.4071 135.432ZM87.5795 139.341C85.784 139.341 84.2386 138.977 82.9431 138.25C81.6553 137.515 80.6628 136.477 79.9659 135.136C79.2689 133.788 78.9204 132.193 78.9204 130.352C78.9204 128.557 79.2689 126.981 79.9659 125.625C80.6628 124.269 81.6439 123.212 82.909 122.455C84.1818 121.697 85.6742 121.318 87.3863 121.318C88.5378 121.318 89.6098 121.504 90.6022 121.875C91.6022 122.239 92.4734 122.788 93.2159 123.523C93.9659 124.258 94.5492 125.182 94.9659 126.295C95.3825 127.402 95.5909 128.697 95.5909 130.182V131.511H80.8522V128.511H91.034C91.034 127.814 90.8825 127.197 90.5795 126.659C90.2765 126.121 89.856 125.701 89.3181 125.398C88.7878 125.087 88.1704 124.932 87.4659 124.932C86.731 124.932 86.0795 125.102 85.5113 125.443C84.9507 125.777 84.5113 126.227 84.1931 126.795C83.8749 127.356 83.7121 127.981 83.7045 128.67V131.523C83.7045 132.386 83.8636 133.133 84.1818 133.761C84.5075 134.39 84.9659 134.875 85.5568 135.216C86.1477 135.557 86.8484 135.727 87.659 135.727C88.1969 135.727 88.6893 135.652 89.1363 135.5C89.5833 135.348 89.9659 135.121 90.284 134.818C90.6022 134.515 90.8446 134.144 91.0113 133.705L95.4886 134C95.2613 135.076 94.7954 136.015 94.0909 136.818C93.3939 137.614 92.4924 138.235 91.3863 138.682C90.2878 139.121 89.0189 139.341 87.5795 139.341ZM106.476 139.341C104.688 139.341 103.151 138.962 101.863 138.205C100.582 137.439 99.5975 136.379 98.9081 135.023C98.2263 133.667 97.8854 132.106 97.8854 130.341C97.8854 128.553 98.2301 126.985 98.9195 125.636C99.6165 124.28 100.605 123.223 101.885 122.466C103.166 121.701 104.688 121.318 106.454 121.318C107.976 121.318 109.31 121.595 110.454 122.148C111.598 122.701 112.503 123.477 113.169 124.477C113.836 125.477 114.204 126.652 114.272 128H109.704C109.575 127.129 109.234 126.428 108.681 125.898C108.135 125.36 107.419 125.091 106.533 125.091C105.783 125.091 105.128 125.295 104.567 125.705C104.014 126.106 103.582 126.693 103.272 127.466C102.961 128.239 102.806 129.174 102.806 130.273C102.806 131.386 102.957 132.333 103.26 133.114C103.571 133.894 104.007 134.489 104.567 134.898C105.128 135.307 105.783 135.511 106.533 135.511C107.086 135.511 107.582 135.398 108.022 135.17C108.469 134.943 108.836 134.614 109.124 134.182C109.419 133.742 109.613 133.216 109.704 132.602H114.272C114.196 133.936 113.832 135.11 113.181 136.125C112.537 137.133 111.647 137.92 110.51 138.489C109.374 139.057 108.029 139.341 106.476 139.341ZM125.098 139.341C123.332 139.341 121.806 138.966 120.518 138.216C119.238 137.458 118.249 136.405 117.552 135.057C116.855 133.701 116.507 132.129 116.507 130.341C116.507 128.538 116.855 126.962 117.552 125.614C118.249 124.258 119.238 123.205 120.518 122.455C121.806 121.697 123.332 121.318 125.098 121.318C126.863 121.318 128.385 121.697 129.666 122.455C130.954 123.205 131.946 124.258 132.643 125.614C133.34 126.962 133.688 128.538 133.688 130.341C133.688 132.129 133.34 133.701 132.643 135.057C131.946 136.405 130.954 137.458 129.666 138.216C128.385 138.966 126.863 139.341 125.098 139.341ZM125.12 135.591C125.923 135.591 126.594 135.364 127.132 134.909C127.67 134.447 128.075 133.818 128.348 133.023C128.628 132.227 128.768 131.322 128.768 130.307C128.768 129.292 128.628 128.386 128.348 127.591C128.075 126.795 127.67 126.167 127.132 125.705C126.594 125.242 125.923 125.011 125.12 125.011C124.31 125.011 123.628 125.242 123.075 125.705C122.529 126.167 122.116 126.795 121.836 127.591C121.563 128.386 121.427 129.292 121.427 130.307C121.427 131.322 121.563 132.227 121.836 133.023C122.116 133.818 122.529 134.447 123.075 134.909C123.628 135.364 124.31 135.591 125.12 135.591ZM136.585 139V136.114L145.131 125.534V125.409H136.881V121.545H150.96V124.693L142.938 135.011V135.136H151.256V139H136.585ZM162.252 139.341C160.457 139.341 158.911 138.977 157.616 138.25C156.328 137.515 155.335 136.477 154.638 135.136C153.941 133.788 153.593 132.193 153.593 130.352C153.593 128.557 153.941 126.981 154.638 125.625C155.335 124.269 156.316 123.212 157.582 122.455C158.854 121.697 160.347 121.318 162.059 121.318C163.21 121.318 164.282 121.504 165.275 121.875C166.275 122.239 167.146 122.788 167.888 123.523C168.638 124.258 169.222 125.182 169.638 126.295C170.055 127.402 170.263 128.697 170.263 130.182V131.511H155.525V128.511H165.707C165.707 127.814 165.555 127.197 165.252 126.659C164.949 126.121 164.529 125.701 163.991 125.398C163.46 125.087 162.843 124.932 162.138 124.932C161.404 124.932 160.752 125.102 160.184 125.443C159.623 125.777 159.184 126.227 158.866 126.795C158.547 127.356 158.385 127.981 158.377 128.67V131.523C158.377 132.386 158.536 133.133 158.854 133.761C159.18 134.39 159.638 134.875 160.229 135.216C160.82 135.557 161.521 135.727 162.332 135.727C162.869 135.727 163.362 135.652 163.809 135.5C164.256 135.348 164.638 135.121 164.957 134.818C165.275 134.515 165.517 134.144 165.684 133.705L170.161 134C169.934 135.076 169.468 136.015 168.763 136.818C168.066 137.614 167.165 138.235 166.059 138.682C164.96 139.121 163.691 139.341 162.252 139.341Z" fill="#EAFF44"/>
<defs>
<clipPath id="clip0_25_2756">
<rect width="42" height="46" fill="white" transform="translate(93.5)"/>
</clipPath>
</defs>
</svg>
